<svg width="30" height="30" viewBox="0 0 30 30" fill="none" xmlns="http://www.w3.org/2000/svg">
	<rect x="1" y="1" width="28" height="28" rx="4" stroke="#474747" stroke-width="2"/>
	<path fill-rule="evenodd" clip-rule="evenodd" d="M20.4 11.4C20.7314 11.0686 20.7314 10.5313 20.4 10.2C20.0686 9.8686 19.5314 9.8686 19.2 10.2L15.7071 13.6929C15.3166 14.0834 14.6834 14.0834 14.2929 13.6929L10.8 10.2C10.4686 9.8686 9.93137 9.8686 9.6 10.2C9.26863 10.5313 9.26863 11.0686 9.6 11.4L13.0929 14.8929C13.4834 15.2834 13.4834 15.9166 13.0929 16.3071L9.6 19.8C9.26863 20.1313 9.26863 20.6686 9.6 21C9.93137 21.3313 10.4686 21.3313 10.8 21L14.2929 17.5071C14.6834 17.1166 15.3166 17.1166 15.7071 17.5071L19.2 21C19.5314 21.3313 20.0686 21.3313 20.4 21C20.7314 20.6686 20.7314 20.1313 20.4 19.8L16.9071 16.3071C16.5166 15.9166 16.5166 15.2834 16.9071 14.8929L20.4 11.4Z" fill="#fff"/>
</svg>