<svg width="30" height="30" viewBox="0 0 30 30" xmlns="http://www.w3.org/2000/svg">
	<path d="M8 17.9746C8 17.6197 8.28398 17.3357 8.63895 17.3357C8.98682 17.3357 9.27079 17.6197 9.27079 17.9746V19.8276L12.0892 17.0162C12.3377 16.7677 12.7353 16.7677 12.9838 17.0162C13.2323 17.2647 13.2323 17.6694 12.9838 17.9178L10.1724 20.7292H12.0325C12.3803 20.7292 12.6643 21.0132 12.6643 21.3682C12.6643 21.716 12.3803 22 12.0325 22H8.63895C8.28398 22 8 21.716 8 21.3682V17.9746V17.9746ZM20.7292 10.1724L17.9178 12.9838C17.6694 13.2323 17.2647 13.2323 17.0162 12.9838C16.7677 12.7353 16.7677 12.3377 17.0162 12.0892L19.8276 9.27079H17.9746C17.6197 9.27079 17.3357 8.98682 17.3357 8.63895C17.3357 8.28398 17.6197 8 17.9746 8H21.3682C21.716 8 22 8.28398 22 8.63895V12.0325C22 12.3803 21.716 12.6643 21.3682 12.6643C21.0132 12.6643 20.7292 12.3803 20.7292 12.0325V10.1724V10.1724ZM10.1724 9.27079L12.9838 12.0892C13.2323 12.3377 13.2323 12.7353 12.9838 12.9838C12.7353 13.2323 12.3377 13.2323 12.0892 12.9838L9.27079 10.1724V12.0325C9.27079 12.3803 8.98682 12.6643 8.63895 12.6643C8.28398 12.6643 8 12.3803 8 12.0325V8.63895C8 8.51826 8.0284 8.41176 8.08519 8.31237L8.09229 8.29817H8.09939V8.29108L8.10649 8.28398L8.11359 8.26978H8.12069V8.26268C8.16329 8.20588 8.20588 8.16329 8.26268 8.12069H8.26978V8.11359L8.28398 8.10649L8.29108 8.09939H8.29817V8.09229L8.31237 8.08519C8.41176 8.0355 8.51826 8 8.63895 8H12.0325C12.3803 8 12.6643 8.28398 12.6643 8.63895C12.6643 8.98682 12.3803 9.27079 12.0325 9.27079H10.1724ZM19.8276 20.7292L17.0162 17.9178C16.7677 17.6694 16.7677 17.2647 17.0162 17.0162C17.2647 16.7677 17.6694 16.7677 17.9178 17.0162L20.7292 19.8276V17.9746C20.7292 17.6197 21.0132 17.3357 21.3682 17.3357C21.716 17.3357 22 17.6197 22 17.9746V21.3682C22 21.716 21.716 22 21.3682 22H17.9746C17.6197 22 17.3357 21.716 17.3357 21.3682C17.3357 21.0132 17.6197 20.7292 17.9746 20.7292H19.8276V20.7292Z" fill="white"/>
</svg>