<svg width="14" height="14" viewBox="0 0 14 14" xmlns="http://www.w3.org/2000/svg">
	<path d="M14 8.17143V5.82857L12.2714 5.64286C12.1429 5.14286 11.9429 4.67143 11.6857 4.24286L12.7714 2.88571L11.1286 1.22857L9.77143 2.31429C9.34286 2.05714 8.87143 1.85714 8.37143 1.72857L8.17143 0H5.82857L5.62857 1.72857C5.12857 1.85714 4.65714 2.05714 4.22857 2.31429L2.87143 1.22857L1.22857 2.87143L2.31429 4.22857C2.05714 4.65714 1.85714 5.12857 1.72857 5.62857L0 5.82857V8.15714L1.72857 8.34286C1.85714 8.84286 2.05714 9.31429 2.31429 9.74286L1.22857 11.1L2.88571 12.7571L4.24286 11.6714C4.67143 11.9286 5.14286 12.1286 5.64286 12.2571L5.82857 14H8.15714L8.34286 12.2714C8.84286 12.1429 9.31429 11.9429 9.74286 11.6857L11.1 12.7714L12.7429 11.1143L11.6571 9.75714C11.9143 9.32857 12.1143 8.85714 12.2429 8.35714L14 8.17143ZM7 8.94286C5.92857 8.94286 5.05714 8.07143 5.05714 7C5.05714 5.92857 5.92857 5.05714 7 5.05714C8.07143 5.05714 8.94286 5.92857 8.94286 7C8.94286 8.07143 8.07143 8.94286 7 8.94286Z" fill="white"/>
</svg>