<svg width="30" height="30" viewBox="0 0 30 30" xmlns="http://www.w3.org/2000/svg">
	<path d="M13.1788 9C13.3834 9.06965 13.5818 9.15639 13.7718 9.2593C14.1704 9.5174 14.3312 9.91835 14.3348 10.3793C14.342 11.2389 14.342 12.098 14.3348 12.9567C14.3348 13.5209 14.0815 13.9567 13.5653 14.198C13.3698 14.2826 13.159 14.3264 12.9459 14.3264C12.0972 14.3408 11.2473 14.336 10.3985 14.3264C9.68906 14.3264 9.19808 13.9291 9.02881 13.2388C9.02033 13.2171 9.01071 13.1959 9 13.1752C9 12.1716 9 11.1676 9 10.1632C9.01321 10.1356 9.02401 10.108 9.03121 10.0804C9.11164 9.75269 9.2557 9.45737 9.54981 9.27611C9.74882 9.16985 9.955 9.07759 10.1668 9H13.1788Z" fill="white"/>
	<path d="M9 16.8138C9.07925 16.6024 9.17602 16.398 9.28931 16.2027C9.39695 16.04 9.54393 15.907 9.71663 15.8161C9.88933 15.7253 10.0822 15.6794 10.2773 15.6829C11.192 15.6733 12.1056 15.6769 13.0203 15.6829C13.1966 15.6829 13.3711 15.7181 13.5336 15.7866C13.696 15.855 13.8431 15.9553 13.9662 16.0815C14.0892 16.2077 14.1858 16.3573 14.2501 16.5214C14.3145 16.6855 14.3453 16.8608 14.3408 17.037C14.3468 17.9062 14.3516 18.7765 14.3408 19.6456C14.33 20.4247 13.8018 20.9769 13.0275 20.995C12.1284 21.0154 11.2268 21.0142 10.3289 20.995C9.65665 20.9781 9.20408 20.588 9.03241 19.9386C9.02521 19.9097 9.01321 19.8833 9 19.8569C9 18.8421 9 17.8277 9 16.8138Z" fill="#fff"/>
	<path d="M19.8304 9C20.0738 9.04979 20.3036 9.15177 20.5038 9.29891C20.6468 9.40693 20.764 9.54534 20.8471 9.70414C20.9301 9.86295 20.9769 10.0382 20.984 10.2173C21.0008 10.9567 20.9948 11.6974 20.9972 12.4381C20.9972 12.6266 20.9972 12.8163 20.9972 13.0047C20.997 13.1827 20.961 13.3588 20.8915 13.5226C20.822 13.6864 20.7203 13.8346 20.5924 13.9584C20.4646 14.0822 20.3132 14.1791 20.1473 14.2434C19.9813 14.3076 19.8042 14.3379 19.6263 14.3324C18.7668 14.3324 17.9072 14.3396 17.0477 14.3324C16.265 14.3228 15.7056 13.8018 15.6864 13.0299C15.6636 12.1212 15.666 11.2112 15.6864 10.3025C15.6996 9.63984 16.1029 9.18487 16.7512 9.02641C16.7738 9.01917 16.7959 9.01035 16.8172 9H19.8304Z" fill="#fff"/>
	<path d="M20.9925 18.3347C20.9925 18.8149 21.0093 19.2951 20.9925 19.7657C20.9814 20.0852 20.8494 20.3886 20.6233 20.6146C20.3971 20.8405 20.0935 20.9722 19.774 20.9829C18.8136 21.0054 17.8533 21.0054 16.8929 20.9829C16.5769 20.9707 16.2773 20.8392 16.0543 20.6149C15.8314 20.3906 15.7016 20.0902 15.6913 19.7741C15.6696 18.8137 15.6696 17.8534 15.6913 16.893C15.7008 16.5767 15.83 16.2758 16.0529 16.0512C16.2757 15.8266 16.5755 15.695 16.8917 15.6829C17.8521 15.6613 18.8156 15.6613 19.7824 15.6829C20.0961 15.6975 20.393 15.8287 20.615 16.0507C20.8371 16.2728 20.9683 16.5697 20.9829 16.8834C21.0045 17.3636 20.9829 17.8437 20.9829 18.3239L20.9925 18.3347Z" fill="#fff"/>
</svg>