<svg width="30" height="30" viewBox="0 0 30 30" xmlns="http://www.w3.org/2000/svg">
	<path d="M21.3194 16.3846H13.9234C13.7532 16.3846 13.6152 16.178 13.6152 15.9231V14.0769C13.6152 13.822 13.7532 13.6154 13.9234 13.6154H21.3194C21.4896 13.6154 21.6275 13.822 21.6275 14.0769V15.9231C21.6275 16.178 21.4896 16.3846 21.3194 16.3846Z" fill="#fff"/>
	<path d="M21.3194 21H13.9234C13.7532 21 13.6152 20.7934 13.6152 20.5385V18.6923C13.6152 18.4374 13.7532 18.2308 13.9234 18.2308H21.3194C21.4896 18.2308 21.6275 18.4374 21.6275 18.6923V20.5385C21.6275 20.7934 21.4896 21 21.3194 21Z" fill="#fff"/>
	<path d="M21.3194 11.7692H13.9234C13.7532 11.7692 13.6152 11.5626 13.6152 11.3077V9.46154C13.6152 9.20658 13.7532 9 13.9234 9H21.3194C21.4896 9 21.6275 9.20658 21.6275 9.46154V11.3077C21.6275 11.5626 21.4896 11.7692 21.3194 11.7692Z" fill="#fff"/>
	<path d="M11.3077 11.7692H9.46154C9.20658 11.7692 9 11.5626 9 11.3077V9.46154C9 9.20677 9.20658 9 9.46154 9H11.3077C11.5626 9 11.7692 9.20677 11.7692 9.46154V11.3077C11.7692 11.5626 11.5626 11.7692 11.3077 11.7692Z" fill="#fff"/>
	<path d="M11.3077 16.3846H9.46154C9.20658 16.3846 9 16.178 9 15.9231V14.0769C9 13.8222 9.20658 13.6154 9.46154 13.6154H11.3077C11.5626 13.6154 11.7692 13.8222 11.7692 14.0769V15.9231C11.7692 16.178 11.5626 16.3846 11.3077 16.3846Z" fill="#fff"/>
	<path d="M11.3077 21H9.46154C9.20658 21 9 20.7934 9 20.5385V18.6923C9 18.4374 9.20658 18.2308 9.46154 18.2308H11.3077C11.5626 18.2308 11.7692 18.4374 11.7692 18.6923V20.5385C11.7692 20.7934 11.5626 21 11.3077 21Z" fill="#fff"/>
</svg>