<svg width="30" height="30" viewBox="0 0 30 30" xmlns="http://www.w3.org/2000/svg">
	<path d="M22 16.1714V13.8286L20.2714 13.6429C20.1429 13.1429 19.9429 12.6714 19.6857 12.2429L20.7714 10.8857L19.1286 9.22857L17.7714 10.3143C17.3429 10.0571 16.8714 9.85714 16.3714 9.72857L16.1714 8H13.8286L13.6286 9.72857C13.1286 9.85714 12.6571 10.0571 12.2286 10.3143L10.8714 9.22857L9.22857 10.8714L10.3143 12.2286C10.0571 12.6571 9.85714 13.1286 9.72857 13.6286L8 13.8286V16.1571L9.72857 16.3429C9.85714 16.8429 10.0571 17.3143 10.3143 17.7429L9.22857 19.1L10.8857 20.7571L12.2429 19.6714C12.6714 19.9286 13.1429 20.1286 13.6429 20.2571L13.8286 22H16.1571L16.3429 20.2714C16.8429 20.1429 17.3143 19.9429 17.7429 19.6857L19.1 20.7714L20.7429 19.1143L19.6571 17.7571C19.9143 17.3286 20.1143 16.8571 20.2429 16.3571L22 16.1714ZM15 16.9429C13.9286 16.9429 13.0571 16.0714 13.0571 15C13.0571 13.9286 13.9286 13.0571 15 13.0571C16.0714 13.0571 16.9429 13.9286 16.9429 15C16.9429 16.0714 16.0714 16.9429 15 16.9429Z" fill="#fff"/>
</svg>