<svg width="30" height="30" viewBox="0 0 30 30" xmlns="http://www.w3.org/2000/svg">
	<path d="M11.3975 8.63669C11.3975 8.28713 11.6828 8.00178 12.0324 8.00178C12.3819 8.00178 12.6673 8.28713 12.6673 8.63669V12.0324C12.6673 12.1465 12.6387 12.2606 12.5817 12.3534L12.5745 12.3676L12.5674 12.3748L12.5603 12.3819V12.389L12.5531 12.3962V12.4033L12.546 12.4104C12.5032 12.4604 12.4604 12.5032 12.4104 12.546L12.4033 12.5531H12.3962L12.389 12.5603H12.3819L12.3748 12.5674L12.3676 12.5745L12.3534 12.5817C12.2606 12.6387 12.1465 12.6673 12.0324 12.6673H8.63669C8.28713 12.6673 8.00178 12.3819 8.00178 12.0324C8.00178 11.6828 8.28713 11.3975 8.63669 11.3975H10.4986L8.18726 9.08611C7.93758 8.83643 7.93758 8.43694 8.18726 8.18726C8.43694 7.93758 8.83643 7.93758 9.08611 8.18726L11.3975 10.4986V8.63669V8.63669ZM19.5085 18.6097L21.8127 20.9139C22.0624 21.1636 22.0624 21.5631 21.8127 21.8127C21.5631 22.0624 21.1636 22.0624 20.9139 21.8127L18.6097 19.5085V21.3633C18.6097 21.7129 18.3243 21.9982 17.9748 21.9982C17.6181 21.9982 17.3327 21.7129 17.3327 21.3633V17.9676C17.3327 17.8535 17.3684 17.7465 17.4255 17.6466L17.4326 17.6395V17.6324V17.6252L17.4397 17.6181H17.4469V17.611L17.454 17.6038L17.4611 17.5967C17.4968 17.5396 17.5396 17.4968 17.5967 17.4611L17.6038 17.454L17.611 17.4469H17.6181V17.4397L17.6252 17.4326H17.6324H17.6395L17.6466 17.4255C17.7465 17.3684 17.8535 17.3327 17.9748 17.3327H21.3633C21.7129 17.3327 21.9982 17.6181 21.9982 17.9676C21.9982 18.3243 21.7129 18.6097 21.3633 18.6097H19.5085V18.6097ZM11.3975 19.5085L9.08611 21.8127C8.83643 22.0624 8.43694 22.0624 8.18726 21.8127C7.93758 21.5631 7.93758 21.1636 8.18726 20.9139L10.4986 18.6097H8.63669C8.28713 18.6097 8.00178 18.3243 8.00178 17.9676C8.00178 17.6181 8.28713 17.3327 8.63669 17.3327H12.0324C12.1465 17.3327 12.2606 17.3684 12.3534 17.4255L12.3676 17.4326H12.3748L12.3819 17.4397L12.389 17.4469H12.3962L12.4033 17.454L12.4104 17.4611C12.4604 17.4968 12.5032 17.5396 12.546 17.5967L12.5531 17.6038V17.611L12.5603 17.6181L12.5674 17.6252L12.5745 17.6324V17.6395L12.5817 17.6466C12.6387 17.7465 12.6673 17.8535 12.6673 17.9676V21.3633C12.6673 21.7129 12.3819 21.9982 12.0324 21.9982C11.6828 21.9982 11.3975 21.7129 11.3975 21.3633V19.5085V19.5085ZM18.6097 10.4986L20.9139 8.18726C21.1636 7.93758 21.5631 7.93758 21.8127 8.18726C22.0624 8.43694 22.0624 8.83643 21.8127 9.08611L19.5085 11.3975H21.3633C21.7129 11.3975 21.9982 11.6828 21.9982 12.0324C21.9982 12.3819 21.7129 12.6673 21.3633 12.6673H17.9748C17.8535 12.6673 17.7465 12.6387 17.6466 12.5817L17.6395 12.5745H17.6324L17.6252 12.5674L17.6181 12.5603L17.611 12.5531H17.6038L17.5967 12.546C17.5396 12.5032 17.4968 12.4604 17.4611 12.4104L17.454 12.4033L17.4469 12.3962V12.389L17.4397 12.3819L17.4326 12.3748V12.3676L17.4255 12.3534C17.3684 12.2606 17.3327 12.1465 17.3327 12.0324V8.63669C17.3327 8.28713 17.6181 8.00178 17.9748 8.00178C18.3243 8.00178 18.6097 8.28713 18.6097 8.63669V10.4986V10.4986Z" fill="white"/>
</svg>