<?xml version="1.0" standalone="no"?>
<!DOCTYPE svg PUBLIC "-//W3C//DTD SVG 1.1//EN" "http://www.w3.org/Graphics/SVG/1.1/DTD/svg11.dtd" >
<svg xmlns="http://www.w3.org/2000/svg" xmlns:xlink="http://www.w3.org/1999/xlink" version="1.1">
<metadata></metadata>
<defs>
<font id="six_capsregular" horiz-adv-x="512" >
<font-face units-per-em="2048" ascent="1638" descent="-410" />
<missing-glyph horiz-adv-x="237" />
<glyph horiz-adv-x="0" />
<glyph horiz-adv-x="0" />
<glyph horiz-adv-x="0" />
<glyph unicode="&#x9;" horiz-adv-x="0" />
<glyph unicode="&#xa;" horiz-adv-x="0" />
<glyph unicode="&#xd;" horiz-adv-x="0" />
<glyph unicode=" "  horiz-adv-x="237" />
<glyph unicode="&#x09;" horiz-adv-x="237" />
<glyph unicode="&#xa0;" horiz-adv-x="237" />
<glyph unicode="!" horiz-adv-x="259" d="M32 1728h192l-64 -1472h-64zM64 0v160h128v-160h-128z" />
<glyph unicode="&#x22;" horiz-adv-x="448" d="M64 1728h128l-32 -352h-64zM256 1728h128l-32 -352h-64z" />
<glyph unicode="#" d="M0 608v96h71l16 288h-55v96h61l35 640h128l-35 -640h96l35 640h128l-35 -640h67v-96h-73l-16 -288h57v-96h-62l-34 -608h-128l34 608h-96l-34 -608h-128l34 608h-66zM199 704h96l16 288h-96z" />
<glyph unicode="$" horiz-adv-x="461" d="M52 150v587h135v-587q0 -20 12.5 -31.5t32.5 -11.5q17 0 28.5 11.5t11.5 31.5v271q0 106 -9.5 182t-25 133t-35 99t-40.5 79t-40.5 74.5t-35 84.5t-25 109t-9.5 148v295q0 61 37 97.5t94 52.5v226h105v-229q54 -16 88 -53q15 -18 23.5 -41t8.5 -50v-520h-136v518 q0 17 -11.5 28t-28.5 11q-19 0 -32 -12t-13 -28v-249q0 -85 9.5 -148.5t25 -113t35.5 -88.5t40.5 -75.5t40.5 -74t35.5 -84t25 -105t9.5 -137.5v-396q0 -72 -30 -111.5t-90 -55.5v-227h-105v227q-27 7 -51.5 20.5t-42.5 32.5q-17 20 -27 47.5t-10 62.5z" />
<glyph unicode="%" horiz-adv-x="1084" d="M48 849v542q0 31 14.5 59t38.5 49t56.5 33.5t68.5 12.5q35 0 67 -11.5t56 -31.5t38.5 -48t14.5 -61v-549q0 -31 -14.5 -58.5t-38.5 -48t-56 -32.5t-67 -12q-36 0 -68.5 12t-56.5 33t-38.5 49.5t-14.5 61.5zM186 824q0 -9 10 -20.5t30 -11.5q16 0 27 9t11 23v591 q0 15 -11 25t-27 10q-15 0 -27.5 -10t-12.5 -25v-591zM378 0l189 1761h134l-189 -1761h-134zM683 367v542q0 32 14 60t38 49t56.5 33t69.5 12q35 0 67 -11.5t56 -31.5t38 -47.5t14 -60.5v-550q0 -31 -14 -58t-38 -47.5t-56 -32.5t-67 -12q-37 0 -69.5 12t-56.5 33t-38 49.5 t-14 60.5zM820 342q0 -8 10 -20t31 -12q15 0 26 9.5t11 22.5v591q0 16 -11 25.5t-26 9.5q-16 0 -28.5 -9.5t-12.5 -25.5v-591z" />
<glyph unicode="&#x26;" horiz-adv-x="491" d="M52 127v674q0 39 15.5 64t35.5 38q24 16 53 23q-31 6 -53 24q-20 14 -35.5 40.5t-15.5 71.5v576q0 30 14.5 57t39 46.5t57 31t68.5 11.5q38 0 71.5 -11t58.5 -30.5t39.5 -46.5t14.5 -58v-561h-135v561q0 14 -13 25t-36 11q-18 0 -31.5 -11t-13.5 -25v-576q0 -33 6.5 -51 t18.5 -26t30 -9.5t41 -1.5v-117q-23 0 -41 -0.5t-30 -6t-18.5 -18t-6.5 -35.5v-670q0 -15 13.5 -27t31.5 -12q23 0 36 12t13 27v622h223l-1 -111l-87 -2v-512q0 -29 -14.5 -55.5t-39.5 -46.5t-58.5 -31.5t-71.5 -11.5q-36 0 -68.5 11.5t-57 32t-39 47.5t-14.5 57z" />
<glyph unicode="'" horiz-adv-x="273" d="M57 1761h159l-42 -359h-86z" />
<glyph unicode="(" horiz-adv-x="352" d="M32 896q0 88 1.5 184t9.5 188.5t25 175.5t49 146.5t81.5 100.5t121.5 37v-96q-40 0 -67.5 -30t-45 -82.5t-27.5 -123.5t-14.5 -153t-5 -170.5t-0.5 -176.5t0.5 -181.5t5 -182.5t14.5 -168t27.5 -138.5t45 -94.5t67.5 -35v-96q-72 0 -121.5 42t-81.5 112t-49 162 t-25 191.5t-9.5 200t-1.5 188.5z" />
<glyph unicode=")" horiz-adv-x="352" d="M32 0q72 0 121.5 42t81.5 112t49 162t25 191.5t9.5 200t1.5 188.5t-1.5 184t-9.5 188.5t-25 175.5t-49 146.5t-81.5 100.5t-121.5 37v-96q40 0 67.5 -30t45 -82.5t27.5 -123.5t14.5 -153t5 -170.5t0.5 -176.5t-0.5 -181.5t-5 -182.5t-14.5 -168t-27.5 -138.5t-45 -94.5 t-67.5 -35v-96z" />
<glyph unicode="*" horiz-adv-x="608" d="M32 1376v96h193l-103 167l84 49l99 -167l103 167l84 -49l-109 -167h193v-96h-192l108 -166l-84 -49l-103 165l-98 -165l-85 49l102 166h-192z" />
<glyph unicode="+" horiz-adv-x="640" d="M32 768v128h224v256h128v-256h224v-128h-224v-256h-128v256h-224z" />
<glyph unicode="," horiz-adv-x="192" d="M32 -160v352h128l-32 -352h-96z" />
<glyph unicode="-" horiz-adv-x="544" d="M32 704v128h480v-128h-480z" />
<glyph unicode="." horiz-adv-x="224" d="M32 0v160h160v-160h-160z" />
<glyph unicode="/" horiz-adv-x="352" d="M32 0l160 1728h128l-160 -1728h-128z" />
<glyph unicode="0" horiz-adv-x="416" d="M32 160v1408q0 48 15 84t40 60t56.5 36t64.5 12t64.5 -12t56.5 -36t40 -60t15 -84v-1408q0 -48 -15 -84t-40 -60t-56.5 -36t-64.5 -12t-64.5 12t-56.5 36t-40 60t-15 84zM160 160q0 -36 15 -54t33 -18t33 18t15 54v1408q0 36 -15 54t-33 18t-33 -18t-15 -54v-1408z" />
<glyph unicode="1" horiz-adv-x="384" d="M32 0v96h96v1536h-96v96h224v-1632h96v-96h-320z" />
<glyph unicode="2" horiz-adv-x="416" d="M32 0q43 301 76 524t57 384t40 267.5t26 173.5t15 103t7.5 56t2.5 31v29q0 48 -15 72t-33 24t-33 -24t-15 -72v-288h-128v288q0 64 26 106.5t65 64t85 21.5t85 -21.5t65 -64t26 -106.5q0 -30 -0.5 -47t-3.5 -37t-9 -52t-17 -91.5t-27.5 -154.5t-39.5 -242.5t-54.5 -355.5 t-72.5 -492h224v-96h-352z" />
<glyph unicode="3" horiz-adv-x="448" d="M32 160v448h128v-448q0 -48 15 -72t33 -24t33 24t15 72v608q0 24 -5.5 37t-14.5 19t-20.5 7t-23.5 1h-64v128h64q12 0 23.5 1t20.5 7t14.5 19.5t5.5 37.5v543q0 48 -15 72t-33 24t-33 -24t-15 -72v-416h-128v416q0 48 15 84t40 60t56.5 36t64.5 12t64.5 -12t56.5 -36 t40 -60t15 -84v-544q0 -12 -1.5 -29t-10.5 -35t-28.5 -35t-55.5 -29q36 -12 55.5 -29t28.5 -35t10.5 -35t1.5 -29v-608q0 -48 -15 -84t-40 -60t-56.5 -36t-64.5 -12t-64.5 12t-56.5 36t-40 60t-15 84z" />
<glyph unicode="4" horiz-adv-x="448" d="M32 352l64 1376h128l-64 -1258h96v650h128v-1120h-128v352h-224z" />
<glyph unicode="5" horiz-adv-x="451" d="M64 160v576h128v-576q0 -48 15 -72t33 -24t33 24t15 72v704q0 36 -15 54t-33 18t-33 -18t-15 -54h-128v864h352v-96h-224v-640q19 29 47.5 45t57.5 16q22 0 43.5 -10.5t38.5 -33.5t27 -58.5t10 -86.5v-704q0 -48 -15 -84t-40 -60t-56.5 -36t-64.5 -12t-64.5 12t-56.5 36 t-40 60t-15 84z" />
<glyph unicode="6" horiz-adv-x="480" d="M64 160v1408q0 48 15 84t40 60t56.5 36t64.5 12t64.5 -12t56.5 -36t40 -60t15 -84v-352h-128v352q0 48 -15 72t-33 24t-33 -24t-15 -72v-576q29 14 56 22t50 8q54 0 86 -44.5t32 -145.5v-672q0 -48 -15 -84t-40 -60t-56.5 -36t-64.5 -12t-64.5 12t-56.5 36t-40 60t-15 84 zM192 160q0 -36 15 -54t33 -18t33 18t15 54v672q0 36 -10.5 50t-25.5 14t-31.5 -10t-28.5 -22v-704z" />
<glyph unicode="7" horiz-adv-x="352" d="M32 1632v96h288l-128 -1728h-128l128 1632h-160z" />
<glyph unicode="8" horiz-adv-x="437" d="M32 160v256q0 133 15 229t33 159q21 74 48 124q-27 49 -48 112q-18 54 -33 130.5t-15 173.5v224q0 48 15 84t40 60t56.5 36t64.5 12t64.5 -12t56.5 -36t40 -60t15 -84v-224q0 -97 -15 -173.5t-33 -130.5q-21 -63 -48 -112q27 -50 48 -124q18 -63 33 -159t15 -229v-256 q0 -48 -15 -84t-40 -60t-56.5 -36t-64.5 -12t-64.5 12t-56.5 36t-40 60t-15 84zM160 160q0 -36 15 -54t33 -18t33 18t15 54v288q0 62 -7.5 129.5t-16.5 124.5q-11 66 -23 130q-14 -64 -25 -130q-9 -57 -16.5 -124.5t-7.5 -129.5v-288zM160 1312q0 -48 7.5 -99.5t16.5 -93.5 q11 -49 25 -96q12 47 23 96q9 42 16.5 93.5t7.5 99.5v256q0 36 -15 54t-33 18t-33 -18t-15 -54v-256z" />
<glyph unicode="9" horiz-adv-x="480" d="M64 160v352h128v-352q0 -48 15 -72t33 -24t33 24t15 72v576q-29 -14 -56 -22t-50 -8q-54 0 -86 44.5t-32 145.5v672q0 48 15 84t40 60t56.5 36t64.5 12t64.5 -12t56.5 -36t40 -60t15 -84v-1408q0 -48 -15 -84t-40 -60t-56.5 -36t-64.5 -12t-64.5 12t-56.5 36t-40 60 t-15 84zM192 896q0 -36 10.5 -50t25.5 -14t31.5 10t28.5 22v704q0 36 -15 54t-33 18t-33 -18t-15 -54v-672z" />
<glyph unicode=":" horiz-adv-x="224" d="M32 288v160h160v-160h-160zM32 960v160h160v-160h-160z" />
<glyph unicode=";" horiz-adv-x="224" d="M32 128v352h160l-64 -352h-96zM32 960v160h160v-160h-160z" />
<glyph unicode="&#x3c;" horiz-adv-x="371" d="M5 876l283 -876v391l-147 485l147 517v368z" />
<glyph unicode="=" horiz-adv-x="576" d="M32 512v128h512v-128h-512zM32 736v128h512v-128h-512z" />
<glyph unicode="&#x3e;" horiz-adv-x="371" d="M31 0v391l147 485l-147 517v368l283 -885z" />
<glyph unicode="?" horiz-adv-x="433" d="M32 1120v448q0 48 15 84t40 60t56.5 36t64.5 12t64.5 -12t56.5 -36t40 -60t15 -84v-224q0 -84 -5.5 -144t-14.5 -105.5t-20.5 -82t-23.5 -73t-23.5 -78t-20.5 -98.5t-14.5 -133t-5.5 -182v-192h-128v288q0 107 9.5 179t23.5 126t31 99.5t31 98.5t23.5 123t9.5 174v224 q0 44 -15 65.5t-34 21.5q-17 0 -32 -21.5t-15 -65.5v-448h-128zM128 0v128h128v-128h-128z" />
<glyph unicode="@" horiz-adv-x="928" d="M64 288v1088q0 96 34.5 168t90.5 120t128 72t147 24t147 -24t128 -72t90.5 -120t34.5 -168v-1088q0 -64 -19 -107t-48.5 -67t-64.5 -30t-67 5t-56.5 37t-32.5 66q-8 -40 -32.5 -66t-56.5 -37t-67 -5t-64.5 30t-48.5 67t-19 107v1088q0 56 26 94.5t65 58.5t85 21.5t85 -17 t65 -58t26 -99.5v-1088q0 -48 15 -72t33 -24t33 24t15 72v1088q0 66 -23.5 115.5t-61.5 82.5t-87 49.5t-100 16.5t-100 -16.5t-87 -49.5t-61.5 -82.5t-23.5 -115.5v-1088q0 -90 24.5 -151.5t66.5 -100.5t97 -59.5t115.5 -29.5t122.5 -10t118 -1l-32 -96q-72 0 -147.5 2 t-146.5 14.5t-134 39.5t-110 76.5t-74.5 126.5t-27.5 189zM416 288q0 -48 15 -72t33 -24t33 24t15 72v1088q0 36 -15 54t-33 18t-33 -18t-15 -54v-1088z" />
<glyph unicode="A" horiz-adv-x="448" d="M32 0l96 1728h192l96 -1728h-128l-16 416h-95l-17 -416h-128zM177 512h95l-16 384l-32 768l-32 -768z" />
<glyph unicode="B" d="M64 0v1728h128q60 0 107.5 -2.5t80.5 -17.5t50.5 -47.5t17.5 -92.5v-544q0 -48 -24 -74t-72 -39q48 -11 72 -37t24 -74v-640q0 -60 -22 -92.5t-58 -47.5t-82 -17.5t-94 -2.5h-128zM192 96q36 0 60.5 1t39.5 7t21.5 19t6.5 37v640q0 12 -0.5 23.5t-3.5 20.5t-9.5 14.5 t-18.5 5.5h-96v-768zM192 960h96q12 0 18.5 5.5t9.5 14.5t3.5 20.5t0.5 23.5v544q0 24 -6.5 37t-21.5 19t-39.5 7t-60.5 1v-672z" />
<glyph unicode="C" d="M64 160v1408q0 46 17 79.5t44.5 54.5t61.5 31t69 10q37 0 71.5 -11t61.5 -33t43 -55t16 -76v-544h-128v544q0 24 -5.5 39.5t-14.5 24t-20.5 12t-23.5 3.5t-23.5 -3.5t-20.5 -12t-14.5 -24t-5.5 -39.5v-1408q0 -12 1 -28.5t7 -31.5t19 -25.5t37 -10.5t37 10.5t19 25.5 t7 31.5t1 28.5v672h128v-672q0 -12 -3 -43.5t-21 -64.5t-57 -58.5t-111 -25.5t-111 25.5t-57 58.5t-21 64.5t-3 43.5z" />
<glyph unicode="D" d="M64 0v1728h128q48 0 94 -2.5t82 -17.5t58 -47.5t22 -92.5v-1408q0 -60 -22 -92.5t-58 -47.5t-82 -17.5t-94 -2.5h-128zM192 96q36 0 60.5 1t39.5 7t21.5 19t6.5 37v1408q0 24 -6.5 37t-21.5 19t-39.5 7t-60.5 1v-1536z" />
<glyph unicode="E" horiz-adv-x="384" d="M64 0v1728h288v-96h-160v-672h128v-96h-128v-768h160v-96h-288z" />
<glyph unicode="F" horiz-adv-x="384" d="M64 0v1728h288v-96h-160v-640h128v-96h-128v-896h-128z" />
<glyph unicode="G" d="M64 160v1408q0 8 1 24t6 35.5t17 40t33 37.5t54 27.5t81 10.5t81 -10.5t54 -27.5t33 -37.5t17 -40t6 -35.5t1 -24v-544h-128v544q0 12 -1 26t-7 25.5t-19 19.5t-37 8t-37 -8t-19 -19.5t-7 -25.5t-1 -26v-1408q0 -12 1 -28.5t7 -31.5t19 -25.5t37 -10.5t37 10.5t19 25.5 t7 31.5t1 28.5v640h-32v96h160v-736q0 -12 -3 -43.5t-21 -64.5t-57 -58.5t-111 -25.5t-111 25.5t-57 58.5t-21 64.5t-3 43.5z" />
<glyph unicode="H" d="M64 0v1728h128v-800h128v800h128v-1728h-128v832h-128v-832h-128z" />
<glyph unicode="I" horiz-adv-x="288" d="M80 0v1728h128v-1728h-128z" />
<glyph unicode="J" d="M64 160v672h128v-672q0 -12 1 -28.5t7 -31.5t19 -25.5t37 -10.5t37 10.5t19 25.5t7 31.5t1 28.5v1568h128v-1568q-3 -54 -24 -96q-9 -18 -23 -35.5t-34 -31t-47.5 -21.5t-63.5 -8t-63.5 8t-47.5 21.5t-34 31t-23 35.5q-21 42 -24 96z" />
<glyph unicode="K" horiz-adv-x="480" d="M64 0v1728h128v-800l128 800h128l-128 -736l-14 -96l14 -96l128 -800h-128l-128 864v-864h-128z" />
<glyph unicode="L" horiz-adv-x="384" d="M64 0v1728h128v-1632h128v-96h-256z" />
<glyph unicode="M" horiz-adv-x="640" d="M64 0l32 1728h128l96 -1184l96 1184h128l32 -1728h-128v1184l-96 -1088h-64l-96 1088v-1184h-128z" />
<glyph unicode="N" d="M64 0v1728h128l160 -1280v1280h96v-1728h-128l-160 1280v-1280h-96z" />
<glyph unicode="O" d="M64 160v1408q0 8 1 24t6 35.5t17 40t33 37.5t54 27.5t81 10.5t81 -10.5t54 -27.5t33 -37.5t17 -40t6 -35.5t1 -24v-1408q0 -12 -3 -43.5t-21 -64.5t-57 -58.5t-111 -25.5t-111 25.5t-57 58.5t-21 64.5t-3 43.5zM192 160q0 -12 1 -28.5t7 -31.5t19 -25.5t37 -10.5t37 10.5 t19 25.5t7 31.5t1 28.5v1408q0 12 -1 26t-7 25.5t-19 19.5t-37 8t-37 -8t-19 -19.5t-7 -25.5t-1 -26v-1408z" />
<glyph unicode="P" horiz-adv-x="480" d="M64 0v1728h128q96 0 148 -16t76 -40t28 -52t4 -52v-576q0 -60 -22 -92.5t-58 -47.5t-82 -17.5t-94 -2.5v-832h-128zM192 928q24 0 47 1t41 7t29 19t11 37v576q0 24 -6.5 37t-21.5 19t-39.5 7t-60.5 1v-704z" />
<glyph unicode="Q" d="M64 160q0 -12 3 -43.5t21 -64.5t57 -58q21 -14 50 -20l29 -230h128l-29 231q26 7 44 19q39 25 57 58t21 64.5t3 43.5v1408q0 8 -1 24t-6 35.5t-17 40t-33 37.5t-54 27.5t-81 10.5t-81 -10.5t-54 -27.5t-33 -37.5t-17 -40t-6 -35.5t-1 -24v-1408zM192 160v1408q0 12 1 26 t7 25.5t19 19.5t37 8t37 -8t19 -19.5t7 -25.5t1 -26v-1408q0 -12 -1 -28.5t-7 -31.5t-19 -25.5t-37 -10.5t-37 10.5t-19 25.5t-7 31.5t-1 28.5z" />
<glyph unicode="R" d="M64 0v1728h128q48 0 94 -2.5t82 -17.5t58 -47.5t22 -92.5v-544q0 -72 -24 -100t-72 -28q24 0 42 -11t30 -29t18 -41t6 -47v-768h-128v800q0 24 -11 37t-29 19t-41 7t-47 1v-864h-128zM192 928q24 0 47 1t41 7t29 19t11 37v576q0 24 -6.5 37t-21.5 19t-39.5 7t-60.5 1 v-704z" />
<glyph unicode="S" horiz-adv-x="448" d="M32 160v576h128v-576q0 -12 1 -28.5t7 -31.5t19 -25.5t37 -10.5t37 10.5t19 25.5t7 31.5t1 28.5v261q0 106 -11 182t-29 132.5t-41 98.5t-47 79t-47 74t-41 84t-29 108.5t-11 147.5v241q0 24 7.5 54.5t28.5 57t58.5 45t97.5 18.5t97.5 -18.5t58.5 -45t28.5 -57t7.5 -54.5 v-448h-128v448q0 24 -5.5 39.5t-14.5 24t-20.5 12t-23.5 3.5t-23.5 -3.5t-20.5 -12t-14.5 -24t-5.5 -39.5v-195q0 -113 19 -189t47.5 -132.5t61.5 -102.5t61.5 -99.5t47.5 -124t19 -175.5v-390q0 -12 -3 -43.5t-21 -64.5t-57 -58.5t-111 -25.5t-111 25.5t-57 58.5t-21 64.5 t-3 43.5z" />
<glyph unicode="T" horiz-adv-x="448" d="M32 1632v96h384v-96h-128v-1632h-128v1632h-128z" />
<glyph unicode="U" d="M64 160v1568h128v-1568q0 -12 1 -28.5t7 -31.5t19 -25.5t37 -10.5t37 10.5t19 25.5t7 31.5t1 28.5v1568h128v-1568q0 -12 -3 -43.5t-21 -64.5t-57 -58.5t-111 -25.5t-111 25.5t-57 58.5t-21 64.5t-3 43.5z" />
<glyph unicode="V" horiz-adv-x="448" d="M32 1728h128l33 -544l31 -640l31 640l33 544h128l-128 -1728h-128z" />
<glyph unicode="W" horiz-adv-x="704" d="M32 1728h128l32 -1216l96 1216h128l96 -1216l32 1216h128l-96 -1728h-128l-64 992l-32 480l-32 -480l-64 -992h-128z" />
<glyph unicode="X" horiz-adv-x="416" d="M32 0l96 864l-96 864h128l32 -448l17 -256l15 256l32 448h128l-96 -864l96 -864h-128l-32 448l-16 256l-16 -256l-32 -448h-128z" />
<glyph unicode="Y" horiz-adv-x="448" d="M32 1728h128l32 -448l32 -448l32 448l32 448h128l-128 -1120v-608h-128v608z" />
<glyph unicode="Z" horiz-adv-x="352" d="M32 0l160 1632h-160v96h288l-160 -1632h160v-96h-288z" />
<glyph unicode="[" horiz-adv-x="433" d="M6 -96h256v96h-128v1760h128v96h-256v-1952z" />
<glyph unicode="\" horiz-adv-x="324" d="M1 1761h134l189 -1761h-134z" />
<glyph unicode="]" horiz-adv-x="392" d="M32 0h128v1760h-128v96h256v-1952h-256v96z" />
<glyph unicode="^" horiz-adv-x="320" d="M32 768l64 352h128l64 -352h-96l-32 256l-32 -256h-96z" />
<glyph unicode="_" horiz-adv-x="544" d="M0 0h544v-96h-544v96z" />
<glyph unicode="`" horiz-adv-x="326" d="M0 512h160l128 -416h-96z" />
<glyph unicode="a" horiz-adv-x="448" d="M32 0l128 1536h128l128 -1536h-128l-20 332h-89l-19 -332h-128zM186 436h75l-37 780z" />
<glyph unicode="b" d="M64 0v1536h128q60 0 107.5 -2.5t80.5 -17.5t50.5 -47.5t17.5 -92.5v-480q0 -48 -25 -74t-80 -39q55 -11 80 -37t25 -74v-512q0 -60 -22 -92.5t-58 -47.5t-82 -17.5t-94 -2.5h-128zM192 96q22 0 45 1t41.5 6.5t30 18.5t11.5 38v512q0 12 -0.5 23.5t-3.5 20.5t-9.5 14.5 t-18.5 5.5h-96v-640zM192 832h96q12 0 18.5 5.5t9.5 14.5t3.5 20.5t0.5 23.5v480q0 24 -6.5 37t-21.5 19t-39.5 7t-60.5 1v-608z" />
<glyph unicode="c" d="M64 144v1248q0 40 16.5 71t43.5 51t62 30.5t71 10.5t70 -10t61 -30.5t43.5 -51t16.5 -71.5v-496h-128v496q0 34 -17 48.5t-39 14.5q-13 0 -25.5 -4.5t-23 -13t-17 -20t-6.5 -25.5v-1248q0 -14 6.5 -26t17 -20.5t23 -13t25.5 -4.5q22 0 39 15t17 49v560h128v-560 q0 -40 -17 -70.5t-44 -51t-62 -31t-71 -10.5t-70 10t-61 30.5t-43 51t-16 71.5z" />
<glyph unicode="d" d="M64 0v1536q41 0 82.5 -0.5t84.5 -1.5q88 -2 130 -13q43 -12 65 -38.5t22 -75.5v-1272q0 -51 -21.5 -78.5t-63.5 -40.5q-20 -6 -49 -9.5t-80 -5.5q-51 -1 -90 -1h-80zM192 96q93 0 110 6q18 6 18 25v1283q0 19 -18 24q-17 6 -110 6v-1344z" />
<glyph unicode="e" horiz-adv-x="352" d="M64 0v1536h256v-96h-128v-576h128v-96h-128v-672h128v-96h-256z" />
<glyph unicode="f" horiz-adv-x="368" d="M64 0v1536h288v-96h-160v-576h128v-96h-128v-768h-128z" />
<glyph unicode="g" horiz-adv-x="480" d="M64 144v1264q0 42 15 72.5t40 50t56.5 28.5t64.5 9t64.5 -9t56.5 -28.5t40 -49.5t15 -72v-513h-128v513q0 36 -15 49.5t-33 13.5t-33 -13.5t-15 -49.5v-1265q0 -36 15 -50t33 -14t33 14t15 50v528h-32v96h160v-624q0 -42 -15 -72.5t-40 -50t-56.5 -28.5t-64.5 -9t-64.5 9 t-56.5 28.5t-40 50t-15 72.5z" />
<glyph unicode="h" d="M64 0v1536h128v-690h128v690h128v-1536h-128v746h-128v-746h-128z" />
<glyph unicode="i" horiz-adv-x="288" d="M80 0v1536h128v-1536h-128z" />
<glyph unicode="j" horiz-adv-x="480" d="M64 144v560h128v-560q0 -36 15 -50t33 -14t33 14t15 50v1392h128v-1392q0 -42 -15 -72.5t-40 -50t-56.5 -28.5t-64.5 -9t-64.5 9t-56.5 28.5t-40 50t-15 72.5z" />
<glyph unicode="k" horiz-adv-x="448" d="M64 0v1536h128v-704l96 704h128l-111 -768l111 -768h-128l-96 704v-704h-128z" />
<glyph unicode="l" horiz-adv-x="320" d="M64 0v1536h128v-1440h128v-96h-256z" />
<glyph unicode="m" horiz-adv-x="576" d="M64 0v1536h113l111 -928l111 928h113v-1536h-112v928l-87 -864h-50l-87 864v-928h-112z" />
<glyph unicode="n" d="M64 0v1536h96l177 -928v928h111v-1536h-96l-176 896v-896h-112z" />
<glyph unicode="o" d="M64 144v1248q0 38 17.5 67.5t46 49.5t64.5 30.5t73 10.5q35 0 68 -9.5t58.5 -29t41 -49.5t15.5 -70v-1248q0 -42 -15.5 -72.5t-41.5 -50.5t-59 -29.5t-68 -9.5q-37 0 -73 10.5t-64 31t-45.5 51t-17.5 69.5zM192 144q0 -14 6.5 -26t17 -20t23 -12.5t25.5 -4.5 q22 0 39 14.5t17 48.5v1248q0 34 -16.5 48.5t-38.5 14.5q-13 0 -26 -4.5t-23.5 -13t-17 -20t-6.5 -25.5v-1248z" />
<glyph unicode="p" horiz-adv-x="480" d="M64 0v1536h160q85 0 130.5 -16t66.5 -40t24 -52t3 -52v-512q0 -60 -22 -92.5t-58 -47.5t-82 -17.5t-94 -2.5v-704h-128zM192 800q24 0 47 1.5t41 10.5t29 28.5t11 55.5v480q0 24 -6.5 37t-21.5 19t-39.5 7t-60.5 1v-640z" />
<glyph unicode="q" d="M64 144v1248q0 38 17.5 67.5t46 49.5t64.5 30.5t73 10.5q35 0 68 -9.5t58.5 -29t41 -49.5t15.5 -70v-1248q0 -42 -15.5 -72.5t-41.5 -50.5t-59 -29.5t-68 -9.5q-37 0 -73 10.5t-64 31t-45.5 51t-17.5 69.5zM192 64h128l64 -256h-128zM192 144q0 -14 6.5 -26t17 -20 t23 -12.5t25.5 -4.5q22 0 39 14.5t17 48.5v1248q0 34 -16.5 48.5t-38.5 14.5q-13 0 -26 -4.5t-23.5 -13t-17 -20t-6.5 -25.5v-1248z" />
<glyph unicode="r" horiz-adv-x="480" d="M64 0v1536h144q65 0 111.5 -10.5t71.5 -37t25 -80.5v-512q0 -48 -24 -74t-72 -37q48 -13 72 -39t24 -74v-672h-128v672q0 24 -6 37t-18 19t-30 7t-42 1v-736h-128zM192 832q24 0 42 1t30 7t18 19t6 37v480q0 24 -6 37t-18 19t-30 7t-42 1v-608z" />
<glyph unicode="s" horiz-adv-x="480" d="M64 144v400h128v-400q0 -36 15 -50t33 -14t33 14t15 50q0 129 -12.5 226.5t-31.5 172t-41.5 130.5t-41.5 103q-19 46 -36.5 105t-31 134t-21.5 168.5t-8 208.5q0 42 15 72t40 49.5t56.5 29t64.5 9.5t64.5 -9.5t56.5 -29t40 -49.5t15 -72v-400h-128v400q0 36 -15 50 t-33 14t-33 -14t-15 -50q0 -107 10 -197t26 -166t36 -138.5t40 -114.5q16 -41 35.5 -95t36.5 -129t28.5 -175t11.5 -233q0 -42 -15 -72.5t-40 -50t-56.5 -28.5t-64.5 -9t-64.5 9t-56.5 28.5t-40 50t-15 72.5z" />
<glyph unicode="t" horiz-adv-x="416" d="M16 1440v96h384v-96h-128v-1440h-128v1440h-128z" />
<glyph unicode="u" horiz-adv-x="480" d="M64 144v1392h128v-1392q0 -36 15 -50t33 -14t33 14t15 50v1392h128v-1392q0 -42 -15 -72.5t-40 -50t-56.5 -28.5t-64.5 -9t-64.5 9t-56.5 28.5t-40 50t-15 72.5z" />
<glyph unicode="v" horiz-adv-x="416" d="M32 1536h128l32 -704l17 -672l15 672l32 704h128l-96 -1536h-160z" />
<glyph unicode="w" horiz-adv-x="640" d="M32 1536h128l32 -704v-641l32 641l32 704h128l32 -704l32 -641v641l32 704h128l-96 -1536h-128l-32 608l-32 672l-32 -672l-32 -608h-128z" />
<glyph unicode="x" horiz-adv-x="416" d="M32 0l96 736l-96 800h128l32 -448l16 -256l16 256l32 448h128l-96 -800l96 -736h-128l-32 384l-16 256l-16 -256l-32 -384h-128z" />
<glyph unicode="y" horiz-adv-x="448" d="M32 1536h128l32 -384l32 -416l32 416l32 384h128l-128 -1024v-512h-128v512z" />
<glyph unicode="z" horiz-adv-x="320" d="M32 0l128 1440h-128v96h256l-120 -1440h120v-96h-256z" />
<glyph unicode="{" horiz-adv-x="348" d="M55 -109v1985h283v-118h-149v-1752h149v-115h-283z" />
<glyph unicode="|" horiz-adv-x="247" d="M58 -120v2002h134v-2002h-134z" />
<glyph unicode="}" horiz-adv-x="392" d="M-1 6h146v1752h-146v118h283v-1985h-283v115z" />
<glyph unicode="~" horiz-adv-x="326" d="M-15 101q0 34 5.5 63t18 50.5t32 33.5t48.5 12q25 0 43.5 -6.5t36.5 -15t38.5 -15t47.5 -6.5q10 0 16 6.5t9 14.5q5 9 6 22h79q0 -23 -2 -42.5t-8 -36.5q-10 -31 -32.5 -55.5t-67.5 -24.5q-25 0 -46.5 7t-41 15t-38.5 15t-39 7q-9 0 -14.5 -6.5t-8.5 -15.5q-3 -8 -3 -22 h-79z" />
<glyph unicode="&#xa1;" horiz-adv-x="242" d="M29 33h192l-64 1472h-64zM61 1601h128v160h-128v-160z" />
<glyph unicode="&#xa2;" horiz-adv-x="430" d="M52 109v1303q0 24 11.5 46t30.5 39.5t44.5 29t54.5 15.5v144h57v-144q28 -4 52.5 -15.5t43.5 -28t30.5 -38t12.5 -45.5v-527h-131v524q-3 14 -13.5 23t-20.5 9q-17 0 -27.5 -9t-10.5 -23v-1303q0 -8 10.5 -16.5t27.5 -8.5q10 0 20.5 8.5t13.5 16.5v604h131v-604 q-1 -23 -12.5 -45t-30.5 -39t-43.5 -28.5t-52.5 -14.5v-137h-57v137q-29 3 -54.5 14.5t-44.5 28.5t-30.5 39t-11.5 45z" />
<glyph unicode="&#xa3;" horiz-adv-x="548" d="M18 0v106q17 11 33.5 25.5t30.5 33.5q24 31 43.5 83.5t19.5 133.5v480h-109v106h109v669q0 30 15 57t39.5 47t57 31.5t68.5 11.5q38 0 71.5 -12t58.5 -32.5t39.5 -47.5t14.5 -57v-316h-136v319q0 17 -14.5 29t-33.5 12q-21 0 -33.5 -12t-12.5 -29v-670h228v-106h-228 v-479q0 -81 -16 -134t-35 -84q-23 -39 -53 -59h332v-106h-489z" />
<glyph unicode="&#xa4;" horiz-adv-x="524" d="M29 862l78 90q-4 12 -7 24t-3 24v542q0 15 3.5 29t10.5 28q-2 5 -15 21.5t-27 34.5l-40 45l73 61l70 -85q21 10 42.5 15.5t46.5 5.5t46.5 -5.5t42.5 -15.5l71 88l73 -64l-85 -102q13 -22 13 -53v-549q0 -20 -9 -42l81 -92l-75 -61l-64 68q-44 -24 -94 -24q-52 0 -95 24 l-64 -69zM220 975q0 -8 10.5 -19.5t30.5 -11.5q16 0 26.5 8.5t10.5 22.5v591q0 16 -10.5 25.5t-26.5 9.5q-15 0 -28 -9.5t-13 -25.5v-591z" />
<glyph unicode="&#xa5;" horiz-adv-x="445" d="M7 449v111h147v76h-147v110h138l-130 1015h141l66 -738l66 738h134l-127 -1015h141v-110h-148v-76h148v-111h-148v-449h-134v449h-147z" />
<glyph unicode="&#xa6;" horiz-adv-x="254" d="M60 0v806h133v-806h-133zM60 888v873h133v-873h-133z" />
<glyph unicode="&#xa7;" horiz-adv-x="412" d="M24 932q0 73 14 121.5t34.5 77.5t45 43.5t45.5 20.5q-25 45 -50 91.5t-44.5 102t-31.5 124.5t-12 160q0 32 16 57.5t41 43t56 26.5t61 9q31 0 62 -9t55.5 -26t39.5 -42t15 -58v-284h-130v283q0 16 -12 25t-30 9t-30 -9t-12 -25q0 -97 17 -170.5t42.5 -133.5t55 -112 t55 -106.5t42.5 -117t17 -143.5q0 -72 -13.5 -120t-33.5 -78t-44.5 -45t-46.5 -21q24 -45 48.5 -95t44.5 -110.5t32.5 -133t12.5 -161.5q0 -33 -16 -59t-41 -43t-56 -26t-61 -9q-31 0 -61.5 8.5t-55 25.5t-39.5 42t-15 58v298h128v-295q0 -18 12 -27t31 -9q18 0 30 9t12 27 q0 97 -17 171.5t-42.5 137.5t-55.5 118t-55.5 112t-42.5 121.5t-17 145.5zM145 942q0 -69 15 -122t39 -103q8 2 19.5 9.5t22 25.5t17.5 48.5t7 79.5q0 69 -14.5 123.5t-38.5 105.5q-8 -2 -19.5 -10.5t-22 -27t-18 -50t-7.5 -79.5z" />
<glyph unicode="&#xa8;" horiz-adv-x="587" d="M115 76v159h145v-159h-145zM318 76v159h143v-159h-143z" />
<glyph unicode="&#xa9;" horiz-adv-x="1474" d="M24 1068q0 98 25.5 189t72 170.5t111.5 144.5t144.5 111.5t170.5 72t189 25.5t189 -25.5t170 -72t144.5 -111.5t112 -144.5t72 -170.5t25.5 -189t-25.5 -189t-72 -170t-112 -144.5t-144.5 -112t-170 -72t-189 -25.5t-189 25.5t-170.5 72t-144.5 112t-111.5 144.5t-72 170 t-25.5 189zM156 1068q0 -122 45 -229.5t123.5 -187.5t184.5 -126.5t228 -46.5q81 0 155.5 21t139 59.5t117.5 92.5t90.5 119.5t58 140.5t20.5 157q0 81 -20.5 156t-58 141t-90.5 119.5t-117.5 92.5t-139 60t-155.5 21q-82 0 -156.5 -21t-139 -60t-117 -92.5t-90 -119.5 t-58 -141t-20.5 -156zM553 711v701q0 28 15 52t39.5 42t57 28.5t67.5 10.5q31 0 62.5 -10t56 -28t40 -41.5t15.5 -50.5v-265h-130v262q0 7 -5 12.5t-12 10t-14.5 7t-12.5 2.5q-16 0 -31 -9t-15 -23v-701q0 -9 14 -18t32 -9q14 0 29 9t15 18v264h130v-264q0 -26 -15.5 -49.5 t-40 -41.5t-56 -28.5t-62.5 -10.5q-35 0 -67.5 10.5t-57 28.5t-39.5 41.5t-15 49.5z" />
<glyph unicode="&#xaa;" horiz-adv-x="418" d="M67 241l128 1536h128l128 -1536h-128l-20 332h-89l-19 -332h-128zM221 677h75l-37 780z" />
<glyph unicode="&#xab;" horiz-adv-x="574" d="M41 881l283 579v-284l-147 -295l147 -273v-307zM273 881l283 579v-284l-147 -295l147 -273v-307z" />
<glyph unicode="&#xac;" horiz-adv-x="1006" d="M24 722v439l958 -2v-99h-832v-338h-126z" />
<glyph unicode="&#xad;" horiz-adv-x="1468" />
<glyph unicode="&#xae;" horiz-adv-x="1474" d="M24 1068q0 98 25.5 189t72 170.5t111.5 144.5t144.5 111.5t170.5 72t189 25.5t189 -25.5t170 -72t144.5 -111.5t112 -144.5t72 -170.5t25.5 -189t-25.5 -189t-72 -170t-112 -144.5t-144.5 -112t-170 -72t-189 -25.5t-189 25.5t-170.5 72t-144.5 112t-111.5 144.5t-72 170 t-25.5 189zM156 1068q0 -122 45 -229.5t123.5 -187.5t184.5 -126.5t228 -46.5q81 0 155.5 21t139 59.5t117.5 92.5t90.5 119.5t58 140.5t20.5 157q0 81 -20.5 156t-58 141t-90.5 119.5t-117.5 92.5t-139 60t-155.5 21q-82 0 -156.5 -21t-139 -60t-117 -92.5t-90 -119.5 t-58 -141t-20.5 -156zM567 597v963q78 0 139.5 -1.5t103.5 -13.5t64.5 -38t22.5 -74v-229q0 -39 -12.5 -63.5t-27.5 -38.5q-18 -18 -38 -27q11 -4 20.5 -9.5t17.5 -12.5q15 -14 27.5 -35t12.5 -56v-365h-120v402q0 10 -3 17t-12.5 11t-26.5 6t-45 2v-438h-123zM689 1109 q39 0 57.5 4t18.5 26v294q0 20 -18.5 24.5t-57.5 4.5v-353z" />
<glyph unicode="&#xaf;" horiz-adv-x="326" d="M0 87v105h327v-105h-327z" />
<glyph unicode="&#xb0;" horiz-adv-x="326" d="M33 1612q0 30 11 56t30 45t45 30t56 11q63 0 103 -40t40 -102q0 -29 -11 -54.5t-30 -44.5t-45 -30t-57 -11q-30 0 -56 11t-45 30t-30 44.5t-11 54.5zM112 1613q0 -26 18 -44.5t45 -18.5q29 0 47 18.5t18 44.5q0 28 -18 45.5t-47 17.5q-27 0 -45 -17.5t-18 -45.5z" />
<glyph unicode="&#xb1;" horiz-adv-x="681" d="M38 795v128h224v256h128v-256h224v-128h-224v-256h-128v256h-224zM137 314v135h404v-135h-404z" />
<glyph unicode="&#xb2;" horiz-adv-x="464" d="M52 927v350q0 30 13 57t37 46.5t57.5 31t74.5 11.5q40 0 76.5 -13.5t63 -37.5t39 -57t5.5 -72q-57 -303 -98.5 -515.5t-67.5 -347.5l-52 -259h218v-121h-365q14 69 30.5 149t34.5 173q32 160 74 387.5t92 527.5q8 40 -11 54q-17 14 -39 14q-21 0 -34.5 -11t-13.5 -27 v-340h-134z" />
<glyph unicode="&#xb3;" horiz-adv-x="439" d="M52 97v408h129v-385q0 -20 7 -35t29 -15q16 0 24 7t11 18t2.5 23.5t-0.5 23.5v539q0 20 -5.5 33.5t-29.5 13.5h-69v104h69q24 0 29.5 11t5.5 30v376q0 10 0.5 23t-2 24.5t-10.5 19.5t-25 8q-22 0 -29 -15.5t-7 -34.5v-265h-129v286q0 27 14 50.5t37 41t52.5 27.5t61.5 10 q34 0 65 -10t54.5 -27.5t37.5 -41.5t14 -52v-433q0 -23 -6 -37.5t-12 -24.5l-18 -18q10 -5 18 -15q6 -9 12 -24.5t6 -39.5v-601q0 -28 -14 -52t-37.5 -41.5t-54.5 -27.5t-65 -10q-32 0 -61.5 10t-52.5 27t-37 40.5t-14 50.5z" />
<glyph unicode="&#xb4;" horiz-adv-x="326" d="M0 96l128 416h160l-192 -416h-96z" />
<glyph unicode="&#xb5;" horiz-adv-x="442" d="M53 -112v1632h134v-1408q0 -13 10 -21.5t23 -8.5q14 0 24.5 8.5t10.5 21.5v1408h134v-1413q0 -27 -12.5 -50t-32.5 -40.5t-46.5 -27.5t-53.5 -10q-9 0 -19.5 6t-18.5 12q-10 6 -19 16v-125h-134z" />
<glyph unicode="&#xb6;" horiz-adv-x="649" d="M55 976v624q0 38 15 68t40 50.5t58 31.5t70 11h355v-1761h-136v826h-38v-826h-140v825q-112 0 -168 33t-56 118z" />
<glyph unicode="&#xb7;" horiz-adv-x="238" d="M21 777v184h183v-184h-183z" />
<glyph unicode="&#xb8;" horiz-adv-x="326" d="M71 -409l58 409h106v-409h-164z" />
<glyph unicode="&#xb9;" horiz-adv-x="402" d="M13 0v115h128v1165h-128v117h264v-1282h112v-115h-376z" />
<glyph unicode="&#xba;" horiz-adv-x="458" d="M129 144v1248q0 38 17.5 67.5t46 49.5t64.5 30.5t73 10.5q35 0 68 -9.5t58.5 -29t41 -49.5t15.5 -70v-1248q0 -42 -15.5 -72.5t-41.5 -50.5t-59 -29.5t-68 -9.5q-37 0 -73 10.5t-64 31t-45.5 51t-17.5 69.5zM257 144q0 -14 6.5 -26t17 -20t23 -12.5t25.5 -4.5 q22 0 39 14.5t17 48.5v1248q0 34 -16.5 48.5t-38.5 14.5q-13 0 -26 -4.5t-23.5 -13t-17 -20t-6.5 -25.5v-1248z" />
<glyph unicode="&#xbb;" horiz-adv-x="593" d="M73 301l283 580l-283 579v-284l147 -295l-147 -273v-307zM305 301l283 580l-283 579v-284l147 -295l-147 -273v-307z" />
<glyph unicode="&#xbc;" horiz-adv-x="1122" d="M33 364v115h127v1164h-127v117h263v-1281h112v-115h-375zM416 0l189 1761h135l-190 -1761h-134zM690 359l144 1038h133l-140 -927h119v325h134v-795h-134v359h-256z" />
<glyph unicode="&#xbd;" horiz-adv-x="1145" d="M34 362v115h128v1165h-128v117h264v-1282h112v-115h-376zM426 0l160 1728h128l-160 -1728h-128zM750 927v350q0 30 13 57t37 46.5t57.5 31t74.5 11.5q40 0 76.5 -13.5t63 -37.5t39 -57t5.5 -72q-57 -303 -98.5 -515.5t-67.5 -347.5l-52 -259h218v-121h-365 q14 69 30.5 149t34.5 173q32 160 74 387.5t92 527.5q8 40 -11 54q-17 14 -39 14q-21 0 -34.5 -11t-13.5 -27v-340h-134z" />
<glyph unicode="&#xbe;" horiz-adv-x="1087" d="M39 434v408h130v-385q0 -20 6.5 -35t28.5 -15q16 0 24 7t11 18t2.5 23.5t-0.5 23.5v539q0 20 -5.5 34t-29.5 14h-70v103h70q24 0 29.5 11t5.5 30v376q0 10 0.5 23t-2 24.5t-10.5 19.5t-25 8q-22 0 -28.5 -15t-6.5 -35v-265h-130v286q0 27 13.5 50.5t36.5 41t52.5 27.5 t62.5 10q34 0 65 -10t54.5 -27.5t37 -41.5t13.5 -51v-434q0 -23 -6 -37.5t-12 -24.5q-8 -11 -18 -18q12 -5 18 -14q6 -10 12 -25.5t6 -39.5v-601q0 -28 -13.5 -52t-37 -41.5t-54.5 -27.5t-65 -10q-33 0 -62.5 10t-52.5 27t-36.5 40.5t-13.5 50.5zM397 0l190 1761h133 l-189 -1761h-134zM653 359l144 1038h133l-141 -927h120v325h133v-795h-133v359h-256z" />
<glyph unicode="&#xbf;" horiz-adv-x="443" d="M416 214q0 -48 15 -84t40 -60t56.5 -36t64.5 -12t64.5 12t56.5 36t40 60t15 84v224q0 84 -5.5 144t-14.5 105.5t-20.5 82t-23.5 73t-23.5 78t-20.5 98.5t-14.5 133t-5.5 182v192h-128v-288q0 -107 9.5 -179t23.5 -126t31 -99.5t31 -98.5t23.5 -123t9.5 -174v-224 q0 -44 -15 -65.5t-34 -21.5q-17 0 -32 21.5t-15 65.5v448h-128v-448zM512 1654h128v128h-128v-128z" />
<glyph unicode="&#xc0;" horiz-adv-x="448" d="M-16 2281h160l128 -416h-96zM32 0l96 1728h192l96 -1728h-128l-16 416h-95l-17 -416h-128zM177 512h95l-16 384l-32 768l-32 -768z" />
<glyph unicode="&#xc1;" horiz-adv-x="448" d="M32 0l96 1728h192l96 -1728h-128l-16 416h-95l-17 -416h-128zM176 1865l128 416h160l-192 -416h-96zM177 512h95l-16 384l-32 768l-32 -768z" />
<glyph unicode="&#xc2;" horiz-adv-x="448" d="M32 0l96 1728h192l96 -1728h-128l-16 416h-95l-17 -416h-128zM92 1865l59 346h146l59 -346h-102l-30 238l-31 -238h-101zM177 512h95l-16 384l-32 768l-32 -768z" />
<glyph unicode="&#xc3;" horiz-adv-x="448" d="M32 0l96 1728h192l96 -1728h-128l-16 416h-95l-17 -416h-128zM34 1865q0 34 5.5 63t18 50.5t32 33.5t48.5 12q25 0 43.5 -6.5t36.5 -15t38.5 -15t47.5 -6.5q10 0 16 6.5t9 14.5q5 9 6 22h79q0 -23 -2 -42.5t-8 -36.5q-10 -31 -32.5 -55.5t-67.5 -24.5q-25 0 -46.5 7 t-41 15t-38.5 15t-39 7q-9 0 -14.5 -6.5t-8.5 -15.5q-3 -8 -3 -22h-79zM177 512h95l-16 384l-32 768l-32 -768z" />
<glyph unicode="&#xc4;" horiz-adv-x="448" d="M32 0l96 1728h192l96 -1728h-128l-16 416h-95l-17 -416h-128zM51 1865v159h145v-159h-145zM177 512h95l-16 384l-32 768l-32 -768zM254 1865v159h143v-159h-143z" />
<glyph unicode="&#xc5;" horiz-adv-x="448" d="M32 0l96 1728h192l96 -1728h-128l-16 416h-95l-17 -416h-128zM81 1874q0 30 11 56t30 45t45 30t56 11q63 0 103 -40t40 -102q0 -29 -11 -54.5t-30 -44.5t-45 -30t-57 -11q-30 0 -56 11t-45 30t-30 44.5t-11 54.5zM160 1875q0 -26 18 -44.5t45 -18.5q29 0 47 18.5t18 44.5 q0 28 -18 45.5t-47 17.5q-27 0 -45 -17.5t-18 -45.5zM177 512h95l-16 384l-32 768l-32 -768z" />
<glyph unicode="&#xc6;" horiz-adv-x="590" d="M6 0l207 1761h368v-117h-173l-2 -648h131v-120h-131v-764h175v-112h-307l-6 383h-78l-46 -383h-138zM202 502h65l28 970z" />
<glyph unicode="&#xc7;" horiz-adv-x="466" d="M123 -409l58 409h106v-409h-164zM128 160v1408q0 46 17 79.5t44.5 54.5t61.5 31t69 10q37 0 71.5 -11t61.5 -33t43 -55t16 -76v-544h-128v544q0 24 -5.5 39.5t-14.5 24t-20.5 12t-23.5 3.5t-23.5 -3.5t-20.5 -12t-14.5 -24t-5.5 -39.5v-1408q0 -12 1 -28.5t7 -31.5 t19 -25.5t37 -10.5t37 10.5t19 25.5t7 31.5t1 28.5v672h128v-672q0 -12 -3 -43.5t-21 -64.5t-57 -58.5t-111 -25.5t-111 25.5t-57 58.5t-21 64.5t-3 43.5z" />
<glyph unicode="&#xc8;" horiz-adv-x="384" d="M-32 2281h160l128 -416h-96zM64 0v1728h288v-96h-160v-672h128v-96h-128v-768h160v-96h-288z" />
<glyph unicode="&#xc9;" horiz-adv-x="384" d="M64 0v1728h288v-96h-160v-672h128v-96h-128v-768h160v-96h-288zM160 1865l128 416h160l-192 -416h-96z" />
<glyph unicode="&#xca;" horiz-adv-x="384" d="M64 0v1728h288v-96h-160v-672h128v-96h-128v-768h160v-96h-288zM76 1865l59 346h146l59 -346h-102l-30 238l-31 -238h-101z" />
<glyph unicode="&#xcb;" horiz-adv-x="384" d="M35 1865v159h145v-159h-145zM64 0v1728h288v-96h-160v-672h128v-96h-128v-768h160v-96h-288zM238 1865v159h143v-159h-143z" />
<glyph unicode="&#xcc;" horiz-adv-x="288" d="M-96 2281h160l128 -416h-96zM80 0v1728h128v-1728h-128z" />
<glyph unicode="&#xcd;" horiz-adv-x="288" d="M80 0v1728h128v-1728h-128zM96 1865l128 416h160l-192 -416h-96z" />
<glyph unicode="&#xce;" horiz-adv-x="288" d="M12 1865l59 346h146l59 -346h-102l-30 238l-31 -238h-101zM80 0v1728h128v-1728h-128z" />
<glyph unicode="&#xcf;" horiz-adv-x="288" d="M-29 1865v159h145v-159h-145zM80 0v1728h128v-1728h-128zM174 1865v159h143v-159h-143z" />
<glyph unicode="&#xd0;" horiz-adv-x="487" d="M12 815v122h47v824h175q33 0 67.5 -9.5t62.5 -30t46 -53t18 -78.5v-1425q0 -41 -16.5 -71.5t-44 -51.5t-62.5 -31.5t-71 -10.5h-175v815h-47zM198 120q21 0 39 0.5t30.5 5t19.5 14t7 26.5v1426q0 19 -7 29.5t-19.5 15.5t-30.5 6t-39 1v-707h50v-122h-50v-695z" />
<glyph unicode="&#xd1;" d="M64 0v1728h128l160 -1280v1280h96v-1728h-128l-160 1280v-1280h-96zM66 1865q0 34 5.5 63t18 50.5t32 33.5t48.5 12q25 0 43.5 -6.5t36.5 -15t38.5 -15t47.5 -6.5q10 0 16 6.5t9 14.5q5 9 6 22h79q0 -23 -2 -42.5t-8 -36.5q-10 -31 -32.5 -55.5t-67.5 -24.5 q-25 0 -46.5 7t-41 15t-38.5 15t-39 7q-9 0 -14.5 -6.5t-8.5 -15.5q-3 -8 -3 -22h-79z" />
<glyph unicode="&#xd2;" d="M16 2281h160l128 -416h-96zM64 160v1408q0 8 1 24t6 35.5t17 40t33 37.5t54 27.5t81 10.5t81 -10.5t54 -27.5t33 -37.5t17 -40t6 -35.5t1 -24v-1408q0 -12 -3 -43.5t-21 -64.5t-57 -58.5t-111 -25.5t-111 25.5t-57 58.5t-21 64.5t-3 43.5zM192 160q0 -12 1 -28.5t7 -31.5 t19 -25.5t37 -10.5t37 10.5t19 25.5t7 31.5t1 28.5v1408q0 12 -1 26t-7 25.5t-19 19.5t-37 8t-37 -8t-19 -19.5t-7 -25.5t-1 -26v-1408z" />
<glyph unicode="&#xd3;" d="M64 160v1408q0 8 1 24t6 35.5t17 40t33 37.5t54 27.5t81 10.5t81 -10.5t54 -27.5t33 -37.5t17 -40t6 -35.5t1 -24v-1408q0 -12 -3 -43.5t-21 -64.5t-57 -58.5t-111 -25.5t-111 25.5t-57 58.5t-21 64.5t-3 43.5zM192 160q0 -12 1 -28.5t7 -31.5t19 -25.5t37 -10.5t37 10.5 t19 25.5t7 31.5t1 28.5v1408q0 12 -1 26t-7 25.5t-19 19.5t-37 8t-37 -8t-19 -19.5t-7 -25.5t-1 -26v-1408zM208 1865l128 416h160l-192 -416h-96z" />
<glyph unicode="&#xd4;" d="M64 160v1408q0 8 1 24t6 35.5t17 40t33 37.5t54 27.5t81 10.5t81 -10.5t54 -27.5t33 -37.5t17 -40t6 -35.5t1 -24v-1408q0 -12 -3 -43.5t-21 -64.5t-57 -58.5t-111 -25.5t-111 25.5t-57 58.5t-21 64.5t-3 43.5zM124 1865l59 346h146l59 -346h-102l-30 238l-31 -238h-101z M192 160q0 -12 1 -28.5t7 -31.5t19 -25.5t37 -10.5t37 10.5t19 25.5t7 31.5t1 28.5v1408q0 12 -1 26t-7 25.5t-19 19.5t-37 8t-37 -8t-19 -19.5t-7 -25.5t-1 -26v-1408z" />
<glyph unicode="&#xd5;" d="M64 160v1408q0 8 1 24t6 35.5t17 40t33 37.5t54 27.5t81 10.5t81 -10.5t54 -27.5t33 -37.5t17 -40t6 -35.5t1 -24v-1408q0 -12 -3 -43.5t-21 -64.5t-57 -58.5t-111 -25.5t-111 25.5t-57 58.5t-21 64.5t-3 43.5zM66 1865q0 34 5.5 63t18 50.5t32 33.5t48.5 12 q25 0 43.5 -6.5t36.5 -15t38.5 -15t47.5 -6.5q10 0 16 6.5t9 14.5q5 9 6 22h79q0 -23 -2 -42.5t-8 -36.5q-10 -31 -32.5 -55.5t-67.5 -24.5q-25 0 -46.5 7t-41 15t-38.5 15t-39 7q-9 0 -14.5 -6.5t-8.5 -15.5q-3 -8 -3 -22h-79zM192 160q0 -12 1 -28.5t7 -31.5t19 -25.5 t37 -10.5t37 10.5t19 25.5t7 31.5t1 28.5v1408q0 12 -1 26t-7 25.5t-19 19.5t-37 8t-37 -8t-19 -19.5t-7 -25.5t-1 -26v-1408z" />
<glyph unicode="&#xd6;" d="M64 160v1408q0 8 1 24t6 35.5t17 40t33 37.5t54 27.5t81 10.5t81 -10.5t54 -27.5t33 -37.5t17 -40t6 -35.5t1 -24v-1408q0 -12 -3 -43.5t-21 -64.5t-57 -58.5t-111 -25.5t-111 25.5t-57 58.5t-21 64.5t-3 43.5zM83 1865v159h145v-159h-145zM192 160q0 -12 1 -28.5 t7 -31.5t19 -25.5t37 -10.5t37 10.5t19 25.5t7 31.5t1 28.5v1408q0 12 -1 26t-7 25.5t-19 19.5t-37 8t-37 -8t-19 -19.5t-7 -25.5t-1 -26v-1408zM286 1865v159h143v-159h-143z" />
<glyph unicode="&#xd7;" horiz-adv-x="398" d="M21 196l117 520l-117 531h133l46 -277l49 277h129l-112 -531l112 -520h-129l-49 262l-46 -262h-133z" />
<glyph unicode="&#xd8;" horiz-adv-x="467" d="M52 124v1513q0 30 14.5 57t39 47t57 31.5t68.5 11.5q38 0 71.5 -12t58.5 -32.5t39.5 -47.5t14.5 -57v-1505q0 -32 -14.5 -59.5t-39.5 -47.5t-58.5 -32t-71.5 -12q-36 0 -68.5 11.5t-57 31.5t-39 46.5t-14.5 55.5zM186 127q0 -15 12.5 -27t32.5 -12q21 0 34.5 12t13.5 27 v1098zM186 539l93 1099q0 17 -14.5 29t-33.5 12q-20 0 -32.5 -12t-12.5 -29v-1099z" />
<glyph unicode="&#xd9;" horiz-adv-x="451" d="M17 2258h160l128 -416h-96zM67 160v1568h128v-1568q0 -12 1 -28.5t7 -31.5t19 -25.5t37 -10.5t37 10.5t19 25.5t7 31.5t1 28.5v1568h128v-1568q0 -12 -3 -43.5t-21 -64.5t-57 -58.5t-111 -25.5t-111 25.5t-57 58.5t-21 64.5t-3 43.5z" />
<glyph unicode="&#xda;" horiz-adv-x="451" d="M42 1842l128 416h160l-192 -416h-96zM67 160v1568h128v-1568q0 -12 1 -28.5t7 -31.5t19 -25.5t37 -10.5t37 10.5t19 25.5t7 31.5t1 28.5v1568h128v-1568q0 -12 -3 -43.5t-21 -64.5t-57 -58.5t-111 -25.5t-111 25.5t-57 58.5t-21 64.5t-3 43.5z" />
<glyph unicode="&#xdb;" horiz-adv-x="451" d="M67 160v1568h128v-1568q0 -12 1 -28.5t7 -31.5t19 -25.5t37 -10.5t37 10.5t19 25.5t7 31.5t1 28.5v1568h128v-1568q0 -12 -3 -43.5t-21 -64.5t-57 -58.5t-111 -25.5t-111 25.5t-57 58.5t-21 64.5t-3 43.5zM94 1830l59 346h146l59 -346h-102l-30 238l-31 -238h-101z" />
<glyph unicode="&#xdc;" horiz-adv-x="451" d="M54 1822v159h145v-159h-145zM67 160v1568h128v-1568q0 -12 1 -28.5t7 -31.5t19 -25.5t37 -10.5t37 10.5t19 25.5t7 31.5t1 28.5v1568h128v-1568q0 -12 -3 -43.5t-21 -64.5t-57 -58.5t-111 -25.5t-111 25.5t-57 58.5t-21 64.5t-3 43.5zM257 1822v159h143v-159h-143z" />
<glyph unicode="&#xdd;" horiz-adv-x="413" d="M5 1842l128 416h160l-192 -416h-96zM64 1728h128l32 -448l32 -448l32 448l32 448h128l-128 -1120v-608h-128v608z" />
<glyph unicode="&#xde;" horiz-adv-x="449" d="M55 0v1761h134v-241h41q37 0 70.5 -11t58.5 -31.5t39.5 -50.5t14.5 -67v-751q0 -84 -57.5 -117.5t-166.5 -33.5v-458h-134zM189 573q47 0 67 7t20 37v755q0 25 -24 34t-63 9v-842z" />
<glyph unicode="&#xdf;" horiz-adv-x="467" d="M52 -204v1815q0 45 16.5 77.5t43 54t58 31.5t61.5 10t62.5 -9.5t59.5 -30.5t44.5 -53.5t17.5 -77.5v-454q0 -37 -23 -77q-23 -38 -70 -53q24 -6 41.5 -19t29 -30.5t17 -37t5.5 -38.5v-754q0 -30 -14.5 -57.5t-39 -48t-57.5 -32.5t-70 -12h-48v-204h-134zM186 114 q25 0 42.5 0.5t29 3.5t16.5 10.5t5 21.5v771q0 5 -1.5 13.5t-6 16.5t-13 13.5t-22.5 5.5h-50v-856zM186 1089h56q25 0 31 16.5t6 41.5v484q0 24 -13.5 36t-33.5 12q-46 0 -46 -48v-542z" />
<glyph unicode="&#xe0;" horiz-adv-x="448" d="M-16 2088h160l128 -416h-96zM32 0l128 1536h128l128 -1536h-128l-20 332h-89l-19 -332h-128zM186 436h75l-37 780z" />
<glyph unicode="&#xe1;" horiz-adv-x="448" d="M32 0l128 1536h128l128 -1536h-128l-20 332h-89l-19 -332h-128zM176 1672l128 416h160l-192 -416h-96zM186 436h75l-37 780z" />
<glyph unicode="&#xe2;" horiz-adv-x="448" d="M32 0l128 1536h128l128 -1536h-128l-20 332h-89l-19 -332h-128zM92 1672l59 346h146l59 -346h-102l-30 238l-31 -238h-101zM186 436h75l-37 780z" />
<glyph unicode="&#xe3;" horiz-adv-x="448" d="M32 0l128 1536h128l128 -1536h-128l-20 332h-89l-19 -332h-128zM34 1672q0 34 5.5 63t18 50.5t32 33.5t48.5 12q25 0 43.5 -6.5t36.5 -15t38.5 -15t47.5 -6.5q10 0 16 6.5t9 14.5q5 9 6 22h79q0 -23 -2 -42.5t-8 -36.5q-10 -31 -32.5 -55.5t-67.5 -24.5q-25 0 -46.5 7 t-41 15t-38.5 15t-39 7q-9 0 -14.5 -6.5t-8.5 -15.5q-3 -8 -3 -22h-79zM186 436h75l-37 780z" />
<glyph unicode="&#xe4;" horiz-adv-x="448" d="M32 0l128 1536h128l128 -1536h-128l-20 332h-89l-19 -332h-128zM51 1672v159h145v-159h-145zM186 436h75l-37 780zM254 1672v159h143v-159h-143z" />
<glyph unicode="&#xe5;" horiz-adv-x="448" d="M32 0l128 1536h128l128 -1536h-128l-20 332h-89l-19 -332h-128zM81 1812q0 30 11 56t30 45t45 30t56 11q63 0 103 -40t40 -102q0 -29 -11 -54.5t-30 -44.5t-45 -30t-57 -11q-30 0 -56 11t-45 30t-30 44.5t-11 54.5zM160 1813q0 -26 18 -44.5t45 -18.5q29 0 47 18.5 t18 44.5q0 28 -18 45.5t-47 17.5q-27 0 -45 -17.5t-18 -45.5zM186 436h75l-37 780z" />
<glyph unicode="&#xe6;" horiz-adv-x="589" d="M11 0l209 1520h348v-98h-166v-564h124v-106h-124v-651h166v-101h-288l3 332h-99l-45 -332h-128zM198 436h84l7 823z" />
<glyph unicode="&#xe7;" d="M64 144v1248q0 40 16.5 71t43.5 51t62 30.5t71 10.5t70 -10t61 -30.5t43.5 -51t16.5 -71.5v-496h-128v496q0 34 -17 48.5t-39 14.5q-13 0 -25.5 -4.5t-23 -13t-17 -20t-6.5 -25.5v-1248q0 -14 6.5 -26t17 -20.5t23 -13t25.5 -4.5q22 0 39 15t17 49v560h128v-560 q0 -40 -17 -70.5t-44 -51t-62 -31t-71 -10.5t-70 10t-61 30.5t-43 51t-16 71.5zM143 -414l58 409h106v-409h-164z" />
<glyph unicode="&#xe8;" horiz-adv-x="352" d="M-48 2088h160l128 -416h-96zM64 0v1536h256v-96h-128v-576h128v-96h-128v-672h128v-96h-256z" />
<glyph unicode="&#xe9;" horiz-adv-x="352" d="M64 0v1536h256v-96h-128v-576h128v-96h-128v-672h128v-96h-256zM144 1672l128 416h160l-192 -416h-96z" />
<glyph unicode="&#xea;" horiz-adv-x="352" d="M60 1672l59 346h146l59 -346h-102l-30 238l-31 -238h-101zM64 0v1536h256v-96h-128v-576h128v-96h-128v-672h128v-96h-256z" />
<glyph unicode="&#xeb;" horiz-adv-x="352" d="M19 1672v159h145v-159h-145zM64 0v1536h256v-96h-128v-576h128v-96h-128v-672h128v-96h-256zM222 1672v159h143v-159h-143z" />
<glyph unicode="&#xec;" horiz-adv-x="292" d="M-94 2088h160l128 -416h-96zM79 0v1520h134v-1520h-134z" />
<glyph unicode="&#xed;" horiz-adv-x="292" d="M79 0v1520h134v-1520h-134zM98 1672l128 416h160l-192 -416h-96z" />
<glyph unicode="&#xee;" horiz-adv-x="292" d="M14 1672l59 346h146l59 -346h-102l-30 238l-31 -238h-101zM79 0v1520h134v-1520h-134z" />
<glyph unicode="&#xef;" horiz-adv-x="292" d="M-27 1672v159h145v-159h-145zM79 0v1520h134v-1520h-134zM176 1672v159h143v-159h-143z" />
<glyph unicode="&#xf0;" horiz-adv-x="469" d="M49 1201v103l205 57q-6 69 -19 122.5t-36.5 90t-60 56t-89.5 19.5v116q88 0 148 -25.5t99 -73t59.5 -116t29.5 -153.5l96 27v-103l-87 -26q3 -67 3.5 -138.5t0.5 -152.5v-863q0 -33 -14 -61t-38 -48.5t-56 -32t-68 -11.5q-35 0 -66 10.5t-54 30t-37 47t-14 60.5v731 q1 30 13.5 57t34 47.5t51 33t64.5 12.5q17 0 32 -6t18 -6v133q0 62 -3 121zM184 141q0 -15 11.5 -25t26.5 -10q25 0 33.5 16t8.5 35v731q-3 0 -14.5 6t-27.5 6q-25 0 -31.5 -16.5t-6.5 -38.5v-704z" />
<glyph unicode="&#xf1;" d="M64 0v1536h96l177 -928v928h111v-1536h-96l-176 896v-896h-112zM66 1672q0 34 5.5 63t18 50.5t32 33.5t48.5 12q25 0 43.5 -6.5t36.5 -15t38.5 -15t47.5 -6.5q10 0 16 6.5t9 14.5q5 9 6 22h79q0 -23 -2 -42.5t-8 -36.5q-10 -31 -32.5 -55.5t-67.5 -24.5q-25 0 -46.5 7 t-41 15t-38.5 15t-39 7q-9 0 -14.5 -6.5t-8.5 -15.5q-3 -8 -3 -22h-79z" />
<glyph unicode="&#xf2;" d="M25 2088h160l128 -416h-96zM64 144v1248q0 38 17.5 67.5t46 49.5t64.5 30.5t73 10.5q35 0 68 -9.5t58.5 -29t41 -49.5t15.5 -70v-1248q0 -42 -15.5 -72.5t-41.5 -50.5t-59 -29.5t-68 -9.5q-37 0 -73 10.5t-64 31t-45.5 51t-17.5 69.5zM192 144q0 -14 6.5 -26t17 -20 t23 -12.5t25.5 -4.5q22 0 39 14.5t17 48.5v1248q0 34 -16.5 48.5t-38.5 14.5q-13 0 -26 -4.5t-23.5 -13t-17 -20t-6.5 -25.5v-1248z" />
<glyph unicode="&#xf3;" d="M64 144v1248q0 38 17.5 67.5t46 49.5t64.5 30.5t73 10.5q35 0 68 -9.5t58.5 -29t41 -49.5t15.5 -70v-1248q0 -42 -15.5 -72.5t-41.5 -50.5t-59 -29.5t-68 -9.5q-37 0 -73 10.5t-64 31t-45.5 51t-17.5 69.5zM192 144q0 -14 6.5 -26t17 -20t23 -12.5t25.5 -4.5 q22 0 39 14.5t17 48.5v1248q0 34 -16.5 48.5t-38.5 14.5q-13 0 -26 -4.5t-23.5 -13t-17 -20t-6.5 -25.5v-1248zM217 1672l128 416h160l-192 -416h-96z" />
<glyph unicode="&#xf4;" d="M64 144v1248q0 38 17.5 67.5t46 49.5t64.5 30.5t73 10.5q35 0 68 -9.5t58.5 -29t41 -49.5t15.5 -70v-1248q0 -42 -15.5 -72.5t-41.5 -50.5t-59 -29.5t-68 -9.5q-37 0 -73 10.5t-64 31t-45.5 51t-17.5 69.5zM133 1672l59 346h146l59 -346h-102l-30 238l-31 -238h-101z M192 144q0 -14 6.5 -26t17 -20t23 -12.5t25.5 -4.5q22 0 39 14.5t17 48.5v1248q0 34 -16.5 48.5t-38.5 14.5q-13 0 -26 -4.5t-23.5 -13t-17 -20t-6.5 -25.5v-1248z" />
<glyph unicode="&#xf5;" d="M64 144v1248q0 38 17.5 67.5t46 49.5t64.5 30.5t73 10.5q35 0 68 -9.5t58.5 -29t41 -49.5t15.5 -70v-1248q0 -42 -15.5 -72.5t-41.5 -50.5t-59 -29.5t-68 -9.5q-37 0 -73 10.5t-64 31t-45.5 51t-17.5 69.5zM75 1672q0 34 5.5 63t18 50.5t32 33.5t48.5 12q25 0 43.5 -6.5 t36.5 -15t38.5 -15t47.5 -6.5q10 0 16 6.5t9 14.5q5 9 6 22h79q0 -23 -2 -42.5t-8 -36.5q-10 -31 -32.5 -55.5t-67.5 -24.5q-25 0 -46.5 7t-41 15t-38.5 15t-39 7q-9 0 -14.5 -6.5t-8.5 -15.5q-3 -8 -3 -22h-79zM192 144q0 -14 6.5 -26t17 -20t23 -12.5t25.5 -4.5 q22 0 39 14.5t17 48.5v1248q0 34 -16.5 48.5t-38.5 14.5q-13 0 -26 -4.5t-23.5 -13t-17 -20t-6.5 -25.5v-1248z" />
<glyph unicode="&#xf6;" d="M64 144v1248q0 38 17.5 67.5t46 49.5t64.5 30.5t73 10.5q35 0 68 -9.5t58.5 -29t41 -49.5t15.5 -70v-1248q0 -42 -15.5 -72.5t-41.5 -50.5t-59 -29.5t-68 -9.5q-37 0 -73 10.5t-64 31t-45.5 51t-17.5 69.5zM92 1672v159h145v-159h-145zM192 144q0 -14 6.5 -26t17 -20 t23 -12.5t25.5 -4.5q22 0 39 14.5t17 48.5v1248q0 34 -16.5 48.5t-38.5 14.5q-13 0 -26 -4.5t-23.5 -13t-17 -20t-6.5 -25.5v-1248zM295 1672v159h143v-159h-143z" />
<glyph unicode="&#xf7;" horiz-adv-x="561" d="M24 665v135h513v-135h-513zM196 415v184h183v-184h-183zM196 858v186h183v-186h-183z" />
<glyph unicode="&#xf8;" horiz-adv-x="458" d="M53 135v1256q0 31 14 59t38.5 49t57 33.5t68.5 12.5q35 0 67 -11.5t56 -31.5t38.5 -48t14.5 -61v-1263q0 -31 -14.5 -58.5t-38.5 -48t-56 -32.5t-67 -12q-36 0 -68.5 12t-57 33t-38.5 49.5t-14 61.5zM190 109q0 -8 10.5 -19.5t30.5 -11.5q16 0 26.5 9t10.5 22v725 l-78 -434v-291zM190 728l78 450v237q0 15 -10.5 25t-26.5 10q-15 0 -28 -10t-13 -25v-687z" />
<glyph unicode="&#xf9;" horiz-adv-x="480" d="M0 2088h160l128 -416h-96zM64 144v1392h128v-1392q0 -36 15 -50t33 -14t33 14t15 50v1392h128v-1392q0 -42 -15 -72.5t-40 -50t-56.5 -28.5t-64.5 -9t-64.5 9t-56.5 28.5t-40 50t-15 72.5z" />
<glyph unicode="&#xfa;" horiz-adv-x="480" d="M64 144v1392h128v-1392q0 -36 15 -50t33 -14t33 14t15 50v1392h128v-1392q0 -42 -15 -72.5t-40 -50t-56.5 -28.5t-64.5 -9t-64.5 9t-56.5 28.5t-40 50t-15 72.5zM192 1672l128 416h160l-192 -416h-96z" />
<glyph unicode="&#xfb;" horiz-adv-x="480" d="M64 144v1392h128v-1392q0 -36 15 -50t33 -14t33 14t15 50v1392h128v-1392q0 -42 -15 -72.5t-40 -50t-56.5 -28.5t-64.5 -9t-64.5 9t-56.5 28.5t-40 50t-15 72.5zM108 1672l59 346h146l59 -346h-102l-30 238l-31 -238h-101z" />
<glyph unicode="&#xfc;" horiz-adv-x="480" d="M64 144v1392h128v-1392q0 -36 15 -50t33 -14t33 14t15 50v1392h128v-1392q0 -42 -15 -72.5t-40 -50t-56.5 -28.5t-64.5 -9t-64.5 9t-56.5 28.5t-40 50t-15 72.5zM67 1672v159h145v-159h-145zM270 1672v159h143v-159h-143z" />
<glyph unicode="&#xfd;" horiz-adv-x="448" d="M32 1536h128l32 -384l32 -416l32 416l32 384h128l-128 -1024v-512h-128v512zM176 1672l128 416h160l-192 -416h-96z" />
<glyph unicode="&#xfe;" horiz-adv-x="437" d="M54 1560h135v-280h34q34 0 65 -9.5t55 -27.5t38 -44t14 -60v-537q0 -66 -0.5 -116t-0.5 -82v-30q0 -42 -17.5 -70.5t-46.5 -45.5t-66.5 -25t-77.5 -9v-465h-131zM189 330q45 0 60.5 9.5t15.5 31.5v768q0 22 -15.5 32t-60.5 10v-851z" />
<glyph unicode="&#xff;" horiz-adv-x="448" d="M32 1536h128l32 -384l32 -416l32 416l32 384h128l-128 -1024v-512h-128v512zM51 1672v159h145v-159h-145zM254 1672v159h143v-159h-143z" />
<glyph unicode="&#x100;" horiz-adv-x="448" d="M32 0l96 1728h192l96 -1728h-128l-16 416h-95l-17 -416h-128zM60 1865v105h327v-105h-327zM177 512h95l-16 384l-32 768l-32 -768z" />
<glyph unicode="&#x101;" horiz-adv-x="448" d="M32 0l128 1536h128l128 -1536h-128l-20 332h-89l-19 -332h-128zM60 1672v105h327v-105h-327zM186 436h75l-37 780z" />
<glyph unicode="&#x102;" horiz-adv-x="448" d="M32 0l96 1728h192l96 -1728h-128l-16 416h-95l-17 -416h-128zM32 2089h101q0 -36 7 -57.5t19 -33t28.5 -15t35.5 -3.5q21 0 38 3.5t29 15t18.5 33t6.5 57.5h101q0 -119 -45 -171.5t-145 -52.5q-103 0 -148.5 52.5t-45.5 171.5zM177 512h95l-16 384l-32 768l-32 -768z" />
<glyph unicode="&#x103;" horiz-adv-x="448" d="M32 0l128 1536h128l128 -1536h-128l-20 332h-89l-19 -332h-128zM32 1896h101q0 -36 7 -57.5t19 -33t28.5 -15t35.5 -3.5q21 0 38 3.5t29 15t18.5 33t6.5 57.5h101q0 -119 -45 -171.5t-145 -52.5q-103 0 -148.5 52.5t-45.5 171.5zM186 436h75l-37 780z" />
<glyph unicode="&#x104;" horiz-adv-x="421" d="M71 0l96 1728h192l96 -1728h-128l-16 416h-95l-17 -416h-128zM216 512h95l-16 384l-32 768l-32 -768zM269 -130q0 57 73 130h50q-13 -20 -20 -40q-7 -17 -12.5 -38t-5.5 -42q0 -38 19.5 -58.5t62.5 -20.5q24 0 44 6t36 13q10 5 18.5 9.5t17.5 10.5v-72q-16 -16 -32 -26 q-16 -9 -38 -17t-53 -8q-38 0 -67.5 12t-50 32.5t-31.5 48.5t-11 60z" />
<glyph unicode="&#x105;" horiz-adv-x="412" d="M64 0l128 1536h128l128 -1536h-128l-20 332h-89l-19 -332h-128zM218 436h75l-37 780zM266 -130q0 57 73 130h50q-13 -20 -20 -40q-7 -17 -12.5 -38t-5.5 -42q0 -38 19.5 -58.5t62.5 -20.5q24 0 44 6t36 13q10 5 18.5 9.5t17.5 10.5v-72q-16 -16 -32 -26q-16 -9 -38 -17 t-53 -8q-38 0 -67.5 12t-50 32.5t-31.5 48.5t-11 60z" />
<glyph unicode="&#x106;" d="M64 160v1408q0 46 17 79.5t44.5 54.5t61.5 31t69 10q37 0 71.5 -11t61.5 -33t43 -55t16 -76v-544h-128v544q0 24 -5.5 39.5t-14.5 24t-20.5 12t-23.5 3.5t-23.5 -3.5t-20.5 -12t-14.5 -24t-5.5 -39.5v-1408q0 -12 1 -28.5t7 -31.5t19 -25.5t37 -10.5t37 10.5t19 25.5 t7 31.5t1 28.5v672h128v-672q0 -12 -3 -43.5t-21 -64.5t-57 -58.5t-111 -25.5t-111 25.5t-57 58.5t-21 64.5t-3 43.5zM208 1865l128 416h160l-192 -416h-96z" />
<glyph unicode="&#x107;" d="M64 144v1248q0 40 16.5 71t43.5 51t62 30.5t71 10.5t70 -10t61 -30.5t43.5 -51t16.5 -71.5v-496h-128v496q0 34 -17 48.5t-39 14.5q-13 0 -25.5 -4.5t-23 -13t-17 -20t-6.5 -25.5v-1248q0 -14 6.5 -26t17 -20.5t23 -13t25.5 -4.5q22 0 39 15t17 49v560h128v-560 q0 -40 -17 -70.5t-44 -51t-62 -31t-71 -10.5t-70 10t-61 30.5t-43 51t-16 71.5zM209 1677l128 416h160l-192 -416h-96z" />
<glyph unicode="&#x108;" d="M64 160v1408q0 46 17 79.5t44.5 54.5t61.5 31t69 10q37 0 71.5 -11t61.5 -33t43 -55t16 -76v-544h-128v544q0 24 -5.5 39.5t-14.5 24t-20.5 12t-23.5 3.5t-23.5 -3.5t-20.5 -12t-14.5 -24t-5.5 -39.5v-1408q0 -12 1 -28.5t7 -31.5t19 -25.5t37 -10.5t37 10.5t19 25.5 t7 31.5t1 28.5v672h128v-672q0 -12 -3 -43.5t-21 -64.5t-57 -58.5t-111 -25.5t-111 25.5t-57 58.5t-21 64.5t-3 43.5zM124 1865l59 346h146l59 -346h-102l-30 238l-31 -238h-101z" />
<glyph unicode="&#x109;" d="M64 144v1248q0 40 16.5 71t43.5 51t62 30.5t71 10.5t70 -10t61 -30.5t43.5 -51t16.5 -71.5v-496h-128v496q0 34 -17 48.5t-39 14.5q-13 0 -25.5 -4.5t-23 -13t-17 -20t-6.5 -25.5v-1248q0 -14 6.5 -26t17 -20.5t23 -13t25.5 -4.5q22 0 39 15t17 49v560h128v-560 q0 -40 -17 -70.5t-44 -51t-62 -31t-71 -10.5t-70 10t-61 30.5t-43 51t-16 71.5zM125 1677l59 346h146l59 -346h-102l-30 238l-31 -238h-101z" />
<glyph unicode="&#x10a;" d="M64 160v1408q0 46 17 79.5t44.5 54.5t61.5 31t69 10q37 0 71.5 -11t61.5 -33t43 -55t16 -76v-544h-128v544q0 24 -5.5 39.5t-14.5 24t-20.5 12t-23.5 3.5t-23.5 -3.5t-20.5 -12t-14.5 -24t-5.5 -39.5v-1408q0 -12 1 -28.5t7 -31.5t19 -25.5t37 -10.5t37 10.5t19 25.5 t7 31.5t1 28.5v672h128v-672q0 -12 -3 -43.5t-21 -64.5t-57 -58.5t-111 -25.5t-111 25.5t-57 58.5t-21 64.5t-3 43.5zM165 1865v185h182v-185h-182z" />
<glyph unicode="&#x10b;" d="M64 144v1248q0 40 16.5 71t43.5 51t62 30.5t71 10.5t70 -10t61 -30.5t43.5 -51t16.5 -71.5v-496h-128v496q0 34 -17 48.5t-39 14.5q-13 0 -25.5 -4.5t-23 -13t-17 -20t-6.5 -25.5v-1248q0 -14 6.5 -26t17 -20.5t23 -13t25.5 -4.5q22 0 39 15t17 49v560h128v-560 q0 -40 -17 -70.5t-44 -51t-62 -31t-71 -10.5t-70 10t-61 30.5t-43 51t-16 71.5zM166 1677v185h182v-185h-182z" />
<glyph unicode="&#x10c;" d="M64 160v1408q0 46 17 79.5t44.5 54.5t61.5 31t69 10q37 0 71.5 -11t61.5 -33t43 -55t16 -76v-544h-128v544q0 24 -5.5 39.5t-14.5 24t-20.5 12t-23.5 3.5t-23.5 -3.5t-20.5 -12t-14.5 -24t-5.5 -39.5v-1408q0 -12 1 -28.5t7 -31.5t19 -25.5t37 -10.5t37 10.5t19 25.5 t7 31.5t1 28.5v672h128v-672q0 -12 -3 -43.5t-21 -64.5t-57 -58.5t-111 -25.5t-111 25.5t-57 58.5t-21 64.5t-3 43.5zM125 2211h100l30 -237l32 237h101l-60 -346h-145z" />
<glyph unicode="&#x10d;" d="M64 144v1248q0 40 16.5 71t43.5 51t62 30.5t71 10.5t70 -10t61 -30.5t43.5 -51t16.5 -71.5v-496h-128v496q0 34 -17 48.5t-39 14.5q-13 0 -25.5 -4.5t-23 -13t-17 -20t-6.5 -25.5v-1248q0 -14 6.5 -26t17 -20.5t23 -13t25.5 -4.5q22 0 39 15t17 49v560h128v-560 q0 -40 -17 -70.5t-44 -51t-62 -31t-71 -10.5t-70 10t-61 30.5t-43 51t-16 71.5zM125 2023h100l30 -237l32 237h101l-60 -346h-145z" />
<glyph unicode="&#x10e;" d="M64 0v1728h128q48 0 94 -2.5t82 -17.5t58 -47.5t22 -92.5v-1408q0 -60 -22 -92.5t-58 -47.5t-82 -17.5t-94 -2.5h-128zM125 2211h100l30 -237l32 237h101l-60 -346h-145zM192 96q36 0 60.5 1t39.5 7t21.5 19t6.5 37v1408q0 24 -6.5 37t-21.5 19t-39.5 7t-60.5 1v-1536z " />
<glyph unicode="&#x10f;" d="M64 0v1536q41 0 82.5 -0.5t84.5 -1.5q88 -2 130 -13q43 -12 65 -38.5t22 -75.5v-1272q0 -51 -21.5 -78.5t-63.5 -40.5q-20 -6 -49 -9.5t-80 -5.5q-51 -1 -90 -1h-80zM192 96q93 0 110 6q18 6 18 25v1283q0 19 -18 24q-17 6 -110 6v-1344zM631 1198v352h128l-32 -352h-96z " />
<glyph unicode="&#x110;" horiz-adv-x="473" d="M-1 886v105h251v-105h-251zM55 0v1761h187q36 0 68.5 -11.5t57 -31.5t39 -47t14.5 -58v-1463q0 -30 -14 -57.5t-38 -48t-57 -32.5t-70 -12h-187zM189 114q24 0 42 0.5t30.5 3.5t18.5 10.5t6 21.5v1455q0 30 -23 34.5t-74 4.5v-1530z" />
<glyph unicode="&#x111;" horiz-adv-x="443" d="M0 750v109h227v-109h-227zM55 0v1520q81 0 143.5 -1.5t105.5 -13.5t65 -38.5t22 -75.5v-1256q0 -51 -22 -78.5t-65 -40t-105.5 -14.5t-143.5 -2zM189 102q34 0 51.5 6t17.5 25v1266q0 19 -17.5 24.5t-51.5 5.5v-1327z" />
<glyph unicode="&#x112;" horiz-adv-x="384" d="M44 1865v105h327v-105h-327zM64 0v1728h288v-96h-160v-672h128v-96h-128v-768h160v-96h-288z" />
<glyph unicode="&#x113;" horiz-adv-x="352" d="M28 1672v105h327v-105h-327zM64 0v1536h256v-96h-128v-576h128v-96h-128v-672h128v-96h-256z" />
<glyph unicode="&#x115;" horiz-adv-x="352" d="M0 1896h101q0 -36 7 -57.5t19 -33t28.5 -15t35.5 -3.5q21 0 38 3.5t29 15t18.5 33t6.5 57.5h101q0 -119 -45 -171.5t-145 -52.5q-103 0 -148.5 52.5t-45.5 171.5zM64 0v1536h256v-96h-128v-576h128v-96h-128v-672h128v-96h-256z" />
<glyph unicode="&#x116;" horiz-adv-x="384" d="M64 0v1728h288v-96h-160v-672h128v-96h-128v-768h160v-96h-288zM117 1865v185h182v-185h-182z" />
<glyph unicode="&#x117;" horiz-adv-x="352" d="M64 0v1536h256v-96h-128v-576h128v-96h-128v-672h128v-96h-256zM101 1672v185h182v-185h-182z" />
<glyph unicode="&#x118;" horiz-adv-x="390" d="M64 0v1728h288v-96h-160v-672h128v-96h-128v-768h160v-96h-288zM214 -130q0 57 73 130h50q-13 -20 -20 -40q-7 -17 -12.5 -38t-5.5 -42q0 -38 19.5 -58.5t62.5 -20.5q24 0 44 6t36 13q10 5 18.5 9.5t17.5 10.5v-72q-16 -16 -32 -26q-16 -9 -38 -17t-53 -8q-38 0 -67.5 12 t-50 32.5t-31.5 48.5t-11 60z" />
<glyph unicode="&#x119;" horiz-adv-x="372" d="M128 0v1536h256v-96h-128v-576h128v-96h-128v-672h128v-96h-256zM188 -130q0 57 73 130h50q-13 -20 -20 -40q-7 -17 -12.5 -38t-5.5 -42q0 -38 19.5 -58.5t62.5 -20.5q24 0 44 6t36 13q10 5 18.5 9.5t17.5 10.5v-72q-16 -16 -32 -26q-16 -9 -38 -17t-53 -8 q-38 0 -67.5 12t-50 32.5t-31.5 48.5t-11 60z" />
<glyph unicode="&#x11a;" horiz-adv-x="384" d="M64 0v1728h288v-96h-160v-672h128v-96h-128v-768h160v-96h-288zM77 2211h100l30 -237l32 237h101l-60 -346h-145z" />
<glyph unicode="&#x11b;" horiz-adv-x="352" d="M61 2018h100l30 -237l32 237h101l-60 -346h-145zM64 0v1536h256v-96h-128v-576h128v-96h-128v-672h128v-96h-256z" />
<glyph unicode="&#x11c;" d="M64 160v1408q0 8 1 24t6 35.5t17 40t33 37.5t54 27.5t81 10.5t81 -10.5t54 -27.5t33 -37.5t17 -40t6 -35.5t1 -24v-544h-128v544q0 12 -1 26t-7 25.5t-19 19.5t-37 8t-37 -8t-19 -19.5t-7 -25.5t-1 -26v-1408q0 -12 1 -28.5t7 -31.5t19 -25.5t37 -10.5t37 10.5t19 25.5 t7 31.5t1 28.5v640h-32v96h160v-736q0 -12 -3 -43.5t-21 -64.5t-57 -58.5t-111 -25.5t-111 25.5t-57 58.5t-21 64.5t-3 43.5zM124 1865l59 346h146l59 -346h-102l-30 238l-31 -238h-101z" />
<glyph unicode="&#x11d;" horiz-adv-x="480" d="M64 144v1264q0 42 15 72.5t40 50t56.5 28.5t64.5 9t64.5 -9t56.5 -28.5t40 -49.5t15 -72v-513h-128v513q0 36 -15 49.5t-33 13.5t-33 -13.5t-15 -49.5v-1265q0 -36 15 -50t33 -14t33 14t15 50v528h-32v96h160v-624q0 -42 -15 -72.5t-40 -50t-56.5 -28.5t-64.5 -9t-64.5 9 t-56.5 28.5t-40 50t-15 72.5zM108 1690l59 346h146l59 -346h-102l-30 238l-31 -238h-101z" />
<glyph unicode="&#x11e;" d="M64 160v1408q0 8 1 24t6 35.5t17 40t33 37.5t54 27.5t81 10.5t81 -10.5t54 -27.5t33 -37.5t17 -40t6 -35.5t1 -24v-544h-128v544q0 12 -1 26t-7 25.5t-19 19.5t-37 8t-37 -8t-19 -19.5t-7 -25.5t-1 -26v-1408q0 -12 1 -28.5t7 -31.5t19 -25.5t37 -10.5t37 10.5t19 25.5 t7 31.5t1 28.5v640h-32v96h160v-736q0 -12 -3 -43.5t-21 -64.5t-57 -58.5t-111 -25.5t-111 25.5t-57 58.5t-21 64.5t-3 43.5zM64 2089h101q0 -36 7 -57.5t19 -33t28.5 -15t35.5 -3.5q21 0 38 3.5t29 15t18.5 33t6.5 57.5h101q0 -119 -45 -171.5t-145 -52.5 q-103 0 -148.5 52.5t-45.5 171.5z" />
<glyph unicode="&#x11f;" horiz-adv-x="480" d="M48 1914h101q0 -36 7 -57.5t19 -33t28.5 -15t35.5 -3.5q21 0 38 3.5t29 15t18.5 33t6.5 57.5h101q0 -119 -45 -171.5t-145 -52.5q-103 0 -148.5 52.5t-45.5 171.5zM64 144v1264q0 42 15 72.5t40 50t56.5 28.5t64.5 9t64.5 -9t56.5 -28.5t40 -49.5t15 -72v-513h-128v513 q0 36 -15 49.5t-33 13.5t-33 -13.5t-15 -49.5v-1265q0 -36 15 -50t33 -14t33 14t15 50v528h-32v96h160v-624q0 -42 -15 -72.5t-40 -50t-56.5 -28.5t-64.5 -9t-64.5 9t-56.5 28.5t-40 50t-15 72.5z" />
<glyph unicode="&#x120;" d="M64 160v1408q0 8 1 24t6 35.5t17 40t33 37.5t54 27.5t81 10.5t81 -10.5t54 -27.5t33 -37.5t17 -40t6 -35.5t1 -24v-544h-128v544q0 12 -1 26t-7 25.5t-19 19.5t-37 8t-37 -8t-19 -19.5t-7 -25.5t-1 -26v-1408q0 -12 1 -28.5t7 -31.5t19 -25.5t37 -10.5t37 10.5t19 25.5 t7 31.5t1 28.5v640h-32v96h160v-736q0 -12 -3 -43.5t-21 -64.5t-57 -58.5t-111 -25.5t-111 25.5t-57 58.5t-21 64.5t-3 43.5zM165 1865v185h182v-185h-182z" />
<glyph unicode="&#x121;" horiz-adv-x="480" d="M64 144v1264q0 42 15 72.5t40 50t56.5 28.5t64.5 9t64.5 -9t56.5 -28.5t40 -49.5t15 -72v-513h-128v513q0 36 -15 49.5t-33 13.5t-33 -13.5t-15 -49.5v-1265q0 -36 15 -50t33 -14t33 14t15 50v528h-32v96h160v-624q0 -42 -15 -72.5t-40 -50t-56.5 -28.5t-64.5 -9t-64.5 9 t-56.5 28.5t-40 50t-15 72.5zM149 1690v185h182v-185h-182z" />
<glyph unicode="&#x122;" d="M64 160v1408q0 8 1 24t6 35.5t17 40t33 37.5t54 27.5t81 10.5t81 -10.5t54 -27.5t33 -37.5t17 -40t6 -35.5t1 -24v-544h-128v544q0 12 -1 26t-7 25.5t-19 19.5t-37 8t-37 -8t-19 -19.5t-7 -25.5t-1 -26v-1408q0 -12 1 -28.5t7 -31.5t19 -25.5t37 -10.5t37 10.5t19 25.5 t7 31.5t1 28.5v640h-32v96h160v-736q0 -12 -3 -43.5t-21 -64.5t-57 -58.5t-111 -25.5t-111 25.5t-57 58.5t-21 64.5t-3 43.5zM192 -154h128l-32 -352h-96v352z" />
<glyph unicode="&#x123;" horiz-adv-x="419" d="M64 144v1264q0 42 15 72.5t40 50t56.5 28.5t64.5 9t64.5 -9t56.5 -28.5t40 -49.5t15 -72v-513h-128v513q0 36 -15 49.5t-33 13.5t-33 -13.5t-15 -49.5v-1265q0 -36 15 -50t33 -14t33 14t15 50v528h-32v96h160v-624q0 -42 -15 -72.5t-40 -50t-56.5 -28.5t-64.5 -9t-64.5 9 t-56.5 28.5t-40 50t-15 72.5zM130 1603l74 360h85v-360h-159z" />
<glyph unicode="&#x124;" d="M64 0v1728h128v-800h128v800h128v-1728h-128v832h-128v-832h-128zM124 1865l59 346h146l59 -346h-102l-30 238l-31 -238h-101z" />
<glyph unicode="&#x125;" d="M64 0v1536h128v-690h128v690h128v-1536h-128v746h-128v-746h-128zM124 1672l59 346h146l59 -346h-102l-30 238l-31 -238h-101z" />
<glyph unicode="&#x126;" d="M64 0v1728h128v-313h128v313h128v-1728h-128v832h-128v-832h-128zM192 928h128v382h-128v-382z" />
<glyph unicode="&#x127;" horiz-adv-x="426" d="M64 0v1536h128v-234h128v234h128v-1536h-128v746h-128v-746h-128zM192 846h128v351h-128v-351z" />
<glyph unicode="&#x128;" horiz-adv-x="288" d="M-46 1865q0 34 5.5 63t18 50.5t32 33.5t48.5 12q25 0 43.5 -6.5t36.5 -15t38.5 -15t47.5 -6.5q10 0 16 6.5t9 14.5q5 9 6 22h79q0 -23 -2 -42.5t-8 -36.5q-10 -31 -32.5 -55.5t-67.5 -24.5q-25 0 -46.5 7t-41 15t-38.5 15t-39 7q-9 0 -14.5 -6.5t-8.5 -15.5q-3 -8 -3 -22 h-79zM80 0v1728h128v-1728h-128z" />
<glyph unicode="&#x129;" horiz-adv-x="292" d="M-44 1672q0 34 5.5 63t18 50.5t32 33.5t48.5 12q25 0 43.5 -6.5t36.5 -15t38.5 -15t47.5 -6.5q10 0 16 6.5t9 14.5q5 9 6 22h79q0 -23 -2 -42.5t-8 -36.5q-10 -31 -32.5 -55.5t-67.5 -24.5q-25 0 -46.5 7t-41 15t-38.5 15t-39 7q-9 0 -14.5 -6.5t-8.5 -15.5q-3 -8 -3 -22 h-79zM79 0v1520h134v-1520h-134z" />
<glyph unicode="&#x12a;" horiz-adv-x="288" d="M-20 1865v105h327v-105h-327zM80 0v1728h128v-1728h-128z" />
<glyph unicode="&#x12b;" horiz-adv-x="292" d="M-18 1672v105h327v-105h-327zM79 0v1520h134v-1520h-134z" />
<glyph unicode="&#x12c;" horiz-adv-x="288" d="M-48 2089h101q0 -36 7 -57.5t19 -33t28.5 -15t35.5 -3.5q21 0 38 3.5t29 15t18.5 33t6.5 57.5h101q0 -119 -45 -171.5t-145 -52.5q-103 0 -148.5 52.5t-45.5 171.5zM80 0v1728h128v-1728h-128z" />
<glyph unicode="&#x12d;" horiz-adv-x="292" d="M-46 1896h101q0 -36 7 -57.5t19 -33t28.5 -15t35.5 -3.5q21 0 38 3.5t29 15t18.5 33t6.5 57.5h101q0 -119 -45 -171.5t-145 -52.5q-103 0 -148.5 52.5t-45.5 171.5zM79 0v1520h134v-1520h-134z" />
<glyph unicode="&#x12e;" horiz-adv-x="247" d="M63 -127q0 57 73 130h50q-13 -20 -20 -40q-7 -17 -12.5 -38t-5.5 -42q0 -38 19.5 -58.5t62.5 -20.5q24 0 44 6t36 13q10 5 18.5 9.5t17.5 10.5v-72q-16 -16 -32 -26q-16 -9 -38 -17t-53 -8q-38 0 -67.5 12t-50 32.5t-31.5 48.5t-11 60zM80 0v1728h128v-1728h-128z" />
<glyph unicode="&#x12f;" horiz-adv-x="244" d="M51 -130q0 57 73 130h50q-13 -20 -20 -40q-7 -17 -12.5 -38t-5.5 -42q0 -38 19.5 -58.5t62.5 -20.5q24 0 44 6t36 13q10 5 18.5 9.5t17.5 10.5v-72q-16 -16 -32 -26q-16 -9 -38 -17t-53 -8q-38 0 -67.5 12t-50 32.5t-31.5 48.5t-11 60zM80 0v1536h128v-1536h-128z" />
<glyph unicode="&#x130;" horiz-adv-x="288" d="M53 1865v185h182v-185h-182zM80 0v1728h128v-1728h-128z" />
<glyph unicode="&#x131;" horiz-adv-x="292" d="M79 0v1520h134v-1520h-134z" />
<glyph unicode="&#x134;" d="M64 160v672h128v-672q0 -12 1 -28.5t7 -31.5t19 -25.5t37 -10.5t37 10.5t19 25.5t7 31.5t1 28.5v1568h128v-1568q-3 -54 -24 -96q-9 -18 -23 -35.5t-34 -31t-47.5 -21.5t-63.5 -8t-63.5 8t-47.5 21.5t-34 31t-23 35.5q-21 42 -24 96zM252 1865l59 346h146l59 -346h-102 l-30 238l-31 -238h-101z" />
<glyph unicode="&#x135;" horiz-adv-x="480" d="M64 144v560h128v-560q0 -36 15 -50t33 -14t33 14t15 50v1392h128v-1392q0 -42 -15 -72.5t-40 -50t-56.5 -28.5t-64.5 -9t-64.5 9t-56.5 28.5t-40 50t-15 72.5zM220 1658l59 346h146l59 -346h-102l-30 238l-31 -238h-101z" />
<glyph unicode="&#x136;" horiz-adv-x="480" d="M64 0v1728h128v-800l128 800h128l-128 -736l-14 -96l14 -96l128 -800h-128l-128 864v-864h-128zM192 -122h128l-32 -352h-96v352z" />
<glyph unicode="&#x137;" horiz-adv-x="448" d="M64 0v1536h128v-704l96 704h128l-111 -768l111 -768h-128l-96 704v-704h-128zM176 -122h128l-32 -352h-96v352z" />
<glyph unicode="&#x138;" horiz-adv-x="421" d="M64 0v1536h128v-704l96 704h128l-111 -768l111 -768h-128l-96 704v-704h-128z" />
<glyph unicode="&#x139;" horiz-adv-x="384" d="M64 0v1728h128v-1632h128v-96h-256zM80 1865l128 416h160l-192 -416h-96z" />
<glyph unicode="&#x13a;" horiz-adv-x="320" d="M64 0v1536h128v-1440h128v-96h-256zM80 1672l128 416h160l-192 -416h-96z" />
<glyph unicode="&#x13b;" horiz-adv-x="384" d="M64 0v1728h128v-1632h128v-96h-256zM128 -122h128l-32 -352h-96v352z" />
<glyph unicode="&#x13c;" horiz-adv-x="320" d="M64 0v1536h128v-1440h128v-96h-256zM128 -122h128l-32 -352h-96v352z" />
<glyph unicode="&#x13d;" horiz-adv-x="384" d="M64 0v1728h128v-1632h128v-96h-256zM503 1391v352h128l-32 -352h-96z" />
<glyph unicode="&#x13e;" horiz-adv-x="320" d="M64 0v1536h128v-1440h128v-96h-256zM311 1198v352h128l-32 -352h-96z" />
<glyph unicode="&#x141;" horiz-adv-x="347" d="M-15 750v117l87 17v877h134v-851l144 29v-117l-144 -28v-683h144v-111h-278v767z" />
<glyph unicode="&#x142;" horiz-adv-x="313" d="M-9 672v117l64 14v717h131v-688l126 29v-117l-126 -28v-615h126v-101h-257v686z" />
<glyph unicode="&#x143;" d="M64 0v1728h128l160 -1280v1280h96v-1728h-128l-160 1280v-1280h-96zM208 1865l128 416h160l-192 -416h-96z" />
<glyph unicode="&#x144;" d="M64 0v1536h96l177 -928v928h111v-1536h-96l-176 896v-896h-112zM208 1672l128 416h160l-192 -416h-96z" />
<glyph unicode="&#x145;" d="M64 0v1728h128l160 -1280v1280h96v-1728h-128l-160 1280v-1280h-96zM192 -122h128l-32 -352h-96v352z" />
<glyph unicode="&#x146;" d="M64 0v1536h96l177 -928v928h111v-1536h-96l-176 896v-896h-112zM192 -122h128l-32 -352h-96v352z" />
<glyph unicode="&#x147;" d="M64 0v1728h128l160 -1280v1280h96v-1728h-128l-160 1280v-1280h-96zM125 2211h100l30 -237l32 237h101l-60 -346h-145z" />
<glyph unicode="&#x148;" d="M64 0v1536h96l177 -928v928h111v-1536h-96l-176 896v-896h-112zM125 2018h100l30 -237l32 237h101l-60 -346h-145z" />
<glyph unicode="&#x14a;" horiz-adv-x="479" d="M55 0v1761h132l111 -1023v1023h126v-1761h-135l-100 982v-982h-134zM60 -69h134v-261q0 -22 15 -31t36 -9q19 0 31.5 11.5t12.5 28.5v712h135v-710q0 -32 -14 -59.5t-38.5 -47.5t-57 -31.5t-69.5 -11.5q-38 0 -71.5 11.5t-59 31.5t-40 47t-14.5 58v261z" />
<glyph unicode="&#x14b;" horiz-adv-x="451" d="M55 0v1520h120l107 -883l-8 883h121v-1520h-121l-100 855l12 -855h-131zM58 -91h129l2 -262q0 -13 11.5 -20.5t25.5 -7.5t24 7.5t10 20.5v717h135v-717q0 -27 -14 -50.5t-37 -41.5t-53.5 -28t-64.5 -10q-33 0 -63.5 10t-54 28t-37 41.5t-13.5 50.5v262z" />
<glyph unicode="&#x14c;" d="M64 160v1408q0 8 1 24t6 35.5t17 40t33 37.5t54 27.5t81 10.5t81 -10.5t54 -27.5t33 -37.5t17 -40t6 -35.5t1 -24v-1408q0 -12 -3 -43.5t-21 -64.5t-57 -58.5t-111 -25.5t-111 25.5t-57 58.5t-21 64.5t-3 43.5zM92 1865v105h327v-105h-327zM192 160q0 -12 1 -28.5 t7 -31.5t19 -25.5t37 -10.5t37 10.5t19 25.5t7 31.5t1 28.5v1408q0 12 -1 26t-7 25.5t-19 19.5t-37 8t-37 -8t-19 -19.5t-7 -25.5t-1 -26v-1408z" />
<glyph unicode="&#x14d;" d="M64 144v1248q0 38 17.5 67.5t46 49.5t64.5 30.5t73 10.5q35 0 68 -9.5t58.5 -29t41 -49.5t15.5 -70v-1248q0 -42 -15.5 -72.5t-41.5 -50.5t-59 -29.5t-68 -9.5q-37 0 -73 10.5t-64 31t-45.5 51t-17.5 69.5zM102 1672v105h327v-105h-327zM192 144q0 -14 6.5 -26t17 -20 t23 -12.5t25.5 -4.5q22 0 39 14.5t17 48.5v1248q0 34 -16.5 48.5t-38.5 14.5q-13 0 -26 -4.5t-23.5 -13t-17 -20t-6.5 -25.5v-1248z" />
<glyph unicode="&#x14e;" d="M64 160v1408q0 8 1 24t6 35.5t17 40t33 37.5t54 27.5t81 10.5t81 -10.5t54 -27.5t33 -37.5t17 -40t6 -35.5t1 -24v-1408q0 -12 -3 -43.5t-21 -64.5t-57 -58.5t-111 -25.5t-111 25.5t-57 58.5t-21 64.5t-3 43.5zM64 2089h101q0 -36 7 -57.5t19 -33t28.5 -15t35.5 -3.5 q21 0 38 3.5t29 15t18.5 33t6.5 57.5h101q0 -119 -45 -171.5t-145 -52.5q-103 0 -148.5 52.5t-45.5 171.5zM192 160q0 -12 1 -28.5t7 -31.5t19 -25.5t37 -10.5t37 10.5t19 25.5t7 31.5t1 28.5v1408q0 12 -1 26t-7 25.5t-19 19.5t-37 8t-37 -8t-19 -19.5t-7 -25.5t-1 -26 v-1408z" />
<glyph unicode="&#x14f;" d="M64 144v1248q0 38 17.5 67.5t46 49.5t64.5 30.5t73 10.5q35 0 68 -9.5t58.5 -29t41 -49.5t15.5 -70v-1248q0 -42 -15.5 -72.5t-41.5 -50.5t-59 -29.5t-68 -9.5q-37 0 -73 10.5t-64 31t-45.5 51t-17.5 69.5zM73 1896h101q0 -36 7 -57.5t19 -33t28.5 -15t35.5 -3.5 q21 0 38 3.5t29 15t18.5 33t6.5 57.5h101q0 -119 -45 -171.5t-145 -52.5q-103 0 -148.5 52.5t-45.5 171.5zM192 144q0 -14 6.5 -26t17 -20t23 -12.5t25.5 -4.5q22 0 39 14.5t17 48.5v1248q0 34 -16.5 48.5t-38.5 14.5q-13 0 -26 -4.5t-23.5 -13t-17 -20t-6.5 -25.5v-1248z " />
<glyph unicode="&#x150;" d="M64 160v1408q0 8 1 24t6 35.5t17 40t33 37.5t54 27.5t81 10.5t81 -10.5t54 -27.5t33 -37.5t17 -40t6 -35.5t1 -24v-1408q0 -12 -3 -43.5t-21 -64.5t-57 -58.5t-111 -25.5t-111 25.5t-57 58.5t-21 64.5t-3 43.5zM133 1865l133 410h158l-190 -410h-101zM192 160 q0 -12 1 -28.5t7 -31.5t19 -25.5t37 -10.5t37 10.5t19 25.5t7 31.5t1 28.5v1408q0 12 -1 26t-7 25.5t-19 19.5t-37 8t-37 -8t-19 -19.5t-7 -25.5t-1 -26v-1408zM279 1865l184 410h158l-241 -410h-101z" />
<glyph unicode="&#x151;" d="M64 144v1248q0 38 17.5 67.5t46 49.5t64.5 30.5t73 10.5q35 0 68 -9.5t58.5 -29t41 -49.5t15.5 -70v-1248q0 -42 -15.5 -72.5t-41.5 -50.5t-59 -29.5t-68 -9.5q-37 0 -73 10.5t-64 31t-45.5 51t-17.5 69.5zM141 1672l133 410h158l-190 -410h-101zM192 144q0 -14 6.5 -26 t17 -20t23 -12.5t25.5 -4.5q22 0 39 14.5t17 48.5v1248q0 34 -16.5 48.5t-38.5 14.5q-13 0 -26 -4.5t-23.5 -13t-17 -20t-6.5 -25.5v-1248zM287 1672l184 410h158l-241 -410h-101z" />
<glyph unicode="&#x152;" horiz-adv-x="603" d="M52 124v1513q0 30 14.5 57t39 47t57 31.5t68.5 11.5q53 0 97 -23h267v-117h-180v-648h133v-120h-133v-764h180v-112h-271q-23 -11 -45 -15q-23 -6 -48 -6q-36 0 -68.5 11.5t-57 31.5t-39 46.5t-14.5 55.5zM186 127q0 -15 12.5 -27t32.5 -12q21 0 34.5 12t13.5 27v1511 q0 17 -14.5 29t-33.5 12q-20 0 -32.5 -12t-12.5 -29v-1511z" />
<glyph unicode="&#x153;" horiz-adv-x="589" d="M52 135v1256q0 31 14 59t38 49t56.5 33.5t69.5 12.5q51 0 95 -25h248v-91h-167v-571h125v-106h-125v-651h167v-101h-257q-18 -11 -42 -15q-20 -6 -44 -6q-37 0 -69.5 12t-56.5 33t-38 49.5t-14 61.5zM189 151q0 -11 0.5 -24t4 -24t12 -18t24.5 -7t26.5 9t10.5 22v1264 q0 15 -1 29t-5 24.5t-11 17t-20 6.5q-27 0 -34 -23.5t-7 -53.5v-1222z" />
<glyph unicode="&#x154;" d="M64 0v1728h128q48 0 94 -2.5t82 -17.5t58 -47.5t22 -92.5v-544q0 -72 -24 -100t-72 -28q24 0 42 -11t30 -29t18 -41t6 -47v-768h-128v800q0 24 -11 37t-29 19t-41 7t-47 1v-864h-128zM80 1865l128 416h160l-192 -416h-96zM192 928q24 0 47 1t41 7t29 19t11 37v576 q0 24 -6.5 37t-21.5 19t-39.5 7t-60.5 1v-704z" />
<glyph unicode="&#x155;" horiz-adv-x="480" d="M64 0v1536h144q65 0 111.5 -10.5t71.5 -37t25 -80.5v-512q0 -48 -24 -74t-72 -37q48 -13 72 -39t24 -74v-672h-128v672q0 24 -6 37t-18 19t-30 7t-42 1v-736h-128zM192 832q24 0 42 1t30 7t18 19t6 37v480q0 24 -6 37t-18 19t-30 7t-42 1v-608zM192 1672l128 416h160 l-192 -416h-96z" />
<glyph unicode="&#x156;" d="M64 0v1728h128q48 0 94 -2.5t82 -17.5t58 -47.5t22 -92.5v-544q0 -72 -24 -100t-72 -28q24 0 42 -11t30 -29t18 -41t6 -47v-768h-128v800q0 24 -11 37t-29 19t-41 7t-47 1v-864h-128zM192 -122h128l-32 -352h-96v352zM192 928q24 0 47 1t41 7t29 19t11 37v576 q0 24 -6.5 37t-21.5 19t-39.5 7t-60.5 1v-704z" />
<glyph unicode="&#x157;" horiz-adv-x="480" d="M64 0v1536h144q65 0 111.5 -10.5t71.5 -37t25 -80.5v-512q0 -48 -24 -74t-72 -37q48 -13 72 -39t24 -74v-672h-128v672q0 24 -6 37t-18 19t-30 7t-42 1v-736h-128zM176 -122h128l-32 -352h-96v352zM192 832q24 0 42 1t30 7t18 19t6 37v480q0 24 -6 37t-18 19t-30 7t-42 1 v-608z" />
<glyph unicode="&#x158;" d="M-3 2211h100l30 -237l32 237h101l-60 -346h-145zM64 0v1728h128q48 0 94 -2.5t82 -17.5t58 -47.5t22 -92.5v-544q0 -72 -24 -100t-72 -28q24 0 42 -11t30 -29t18 -41t6 -47v-768h-128v800q0 24 -11 37t-29 19t-41 7t-47 1v-864h-128zM192 928q24 0 47 1t41 7t29 19t11 37 v576q0 24 -6.5 37t-21.5 19t-39.5 7t-60.5 1v-704z" />
<glyph unicode="&#x159;" horiz-adv-x="480" d="M64 0v1536h144q65 0 111.5 -10.5t71.5 -37t25 -80.5v-512q0 -48 -24 -74t-72 -37q48 -13 72 -39t24 -74v-672h-128v672q0 24 -6 37t-18 19t-30 7t-42 1v-736h-128zM109 2018h100l30 -237l32 237h101l-60 -346h-145zM192 832q24 0 42 1t30 7t18 19t6 37v480q0 24 -6 37 t-18 19t-30 7t-42 1v-608z" />
<glyph unicode="&#x15a;" horiz-adv-x="448" d="M32 160v576h128v-576q0 -12 1 -28.5t7 -31.5t19 -25.5t37 -10.5t37 10.5t19 25.5t7 31.5t1 28.5v261q0 106 -11 182t-29 132.5t-41 98.5t-47 79t-47 74t-41 84t-29 108.5t-11 147.5v241q0 24 7.5 54.5t28.5 57t58.5 45t97.5 18.5t97.5 -18.5t58.5 -45t28.5 -57t7.5 -54.5 v-448h-128v448q0 24 -5.5 39.5t-14.5 24t-20.5 12t-23.5 3.5t-23.5 -3.5t-20.5 -12t-14.5 -24t-5.5 -39.5v-195q0 -113 19 -189t47.5 -132.5t61.5 -102.5t61.5 -99.5t47.5 -124t19 -175.5v-390q0 -12 -3 -43.5t-21 -64.5t-57 -58.5t-111 -25.5t-111 25.5t-57 58.5t-21 64.5 t-3 43.5zM176 1865l128 416h160l-192 -416h-96z" />
<glyph unicode="&#x15b;" horiz-adv-x="480" d="M64 144v400h128v-400q0 -36 15 -50t33 -14t33 14t15 50q0 129 -12.5 226.5t-31.5 172t-41.5 130.5t-41.5 103q-19 46 -36.5 105t-31 134t-21.5 168.5t-8 208.5q0 42 15 72t40 49.5t56.5 29t64.5 9.5t64.5 -9.5t56.5 -29t40 -49.5t15 -72v-400h-128v400q0 36 -15 50 t-33 14t-33 -14t-15 -50q0 -107 10 -197t26 -166t36 -138.5t40 -114.5q16 -41 35.5 -95t36.5 -129t28.5 -175t11.5 -233q0 -42 -15 -72.5t-40 -50t-56.5 -28.5t-64.5 -9t-64.5 9t-56.5 28.5t-40 50t-15 72.5zM192 1674l128 416h160l-192 -416h-96z" />
<glyph unicode="&#x15c;" horiz-adv-x="448" d="M32 160v576h128v-576q0 -12 1 -28.5t7 -31.5t19 -25.5t37 -10.5t37 10.5t19 25.5t7 31.5t1 28.5v261q0 106 -11 182t-29 132.5t-41 98.5t-47 79t-47 74t-41 84t-29 108.5t-11 147.5v241q0 24 7.5 54.5t28.5 57t58.5 45t97.5 18.5t97.5 -18.5t58.5 -45t28.5 -57t7.5 -54.5 v-448h-128v448q0 24 -5.5 39.5t-14.5 24t-20.5 12t-23.5 3.5t-23.5 -3.5t-20.5 -12t-14.5 -24t-5.5 -39.5v-195q0 -113 19 -189t47.5 -132.5t61.5 -102.5t61.5 -99.5t47.5 -124t19 -175.5v-390q0 -12 -3 -43.5t-21 -64.5t-57 -58.5t-111 -25.5t-111 25.5t-57 58.5t-21 64.5 t-3 43.5zM92 1865l59 346h146l59 -346h-102l-30 238l-31 -238h-101z" />
<glyph unicode="&#x15d;" horiz-adv-x="480" d="M64 144v400h128v-400q0 -36 15 -50t33 -14t33 14t15 50q0 129 -12.5 226.5t-31.5 172t-41.5 130.5t-41.5 103q-19 46 -36.5 105t-31 134t-21.5 168.5t-8 208.5q0 42 15 72t40 49.5t56.5 29t64.5 9.5t64.5 -9.5t56.5 -29t40 -49.5t15 -72v-400h-128v400q0 36 -15 50 t-33 14t-33 -14t-15 -50q0 -107 10 -197t26 -166t36 -138.5t40 -114.5q16 -41 35.5 -95t36.5 -129t28.5 -175t11.5 -233q0 -42 -15 -72.5t-40 -50t-56.5 -28.5t-64.5 -9t-64.5 9t-56.5 28.5t-40 50t-15 72.5zM108 1674l59 346h146l59 -346h-102l-30 238l-31 -238h-101z" />
<glyph unicode="&#x15e;" horiz-adv-x="448" d="M32 160v576h128v-576q0 -12 1 -28.5t7 -31.5t19 -25.5t37 -10.5t37 10.5t19 25.5t7 31.5t1 28.5v261q0 106 -11 182t-29 132.5t-41 98.5t-47 79t-47 74t-41 84t-29 108.5t-11 147.5v241q0 24 7.5 54.5t28.5 57t58.5 45t97.5 18.5t97.5 -18.5t58.5 -45t28.5 -57t7.5 -54.5 v-448h-128v448q0 24 -5.5 39.5t-14.5 24t-20.5 12t-23.5 3.5t-23.5 -3.5t-20.5 -12t-14.5 -24t-5.5 -39.5v-195q0 -113 19 -189t47.5 -132.5t61.5 -102.5t61.5 -99.5t47.5 -124t19 -175.5v-390q0 -12 -3 -43.5t-21 -64.5t-57 -58.5t-111 -25.5t-111 25.5t-57 58.5t-21 64.5 t-3 43.5zM113 -427l58 409h106v-409h-164z" />
<glyph unicode="&#x15f;" horiz-adv-x="480" d="M64 144v400h128v-400q0 -36 15 -50t33 -14t33 14t15 50q0 129 -12.5 226.5t-31.5 172t-41.5 130.5t-41.5 103q-19 46 -36.5 105t-31 134t-21.5 168.5t-8 208.5q0 42 15 72t40 49.5t56.5 29t64.5 9.5t64.5 -9.5t56.5 -29t40 -49.5t15 -72v-400h-128v400q0 36 -15 50 t-33 14t-33 -14t-15 -50q0 -107 10 -197t26 -166t36 -138.5t40 -114.5q16 -41 35.5 -95t36.5 -129t28.5 -175t11.5 -233q0 -42 -15 -72.5t-40 -50t-56.5 -28.5t-64.5 -9t-64.5 9t-56.5 28.5t-40 50t-15 72.5zM129 -411l58 409h106v-409h-164z" />
<glyph unicode="&#x160;" horiz-adv-x="448" d="M32 160v576h128v-576q0 -12 1 -28.5t7 -31.5t19 -25.5t37 -10.5t37 10.5t19 25.5t7 31.5t1 28.5v261q0 106 -11 182t-29 132.5t-41 98.5t-47 79t-47 74t-41 84t-29 108.5t-11 147.5v241q0 24 7.5 54.5t28.5 57t58.5 45t97.5 18.5t97.5 -18.5t58.5 -45t28.5 -57t7.5 -54.5 v-448h-128v448q0 24 -5.5 39.5t-14.5 24t-20.5 12t-23.5 3.5t-23.5 -3.5t-20.5 -12t-14.5 -24t-5.5 -39.5v-195q0 -113 19 -189t47.5 -132.5t61.5 -102.5t61.5 -99.5t47.5 -124t19 -175.5v-390q0 -12 -3 -43.5t-21 -64.5t-57 -58.5t-111 -25.5t-111 25.5t-57 58.5t-21 64.5 t-3 43.5zM93 2211h100l30 -237l32 237h101l-60 -346h-145z" />
<glyph unicode="&#x161;" horiz-adv-x="480" d="M64 144v400h128v-400q0 -36 15 -50t33 -14t33 14t15 50q0 129 -12.5 226.5t-31.5 172t-41.5 130.5t-41.5 103q-19 46 -36.5 105t-31 134t-21.5 168.5t-8 208.5q0 42 15 72t40 49.5t56.5 29t64.5 9.5t64.5 -9.5t56.5 -29t40 -49.5t15 -72v-400h-128v400q0 36 -15 50 t-33 14t-33 -14t-15 -50q0 -107 10 -197t26 -166t36 -138.5t40 -114.5q16 -41 35.5 -95t36.5 -129t28.5 -175t11.5 -233q0 -42 -15 -72.5t-40 -50t-56.5 -28.5t-64.5 -9t-64.5 9t-56.5 28.5t-40 50t-15 72.5zM109 2020h100l30 -237l32 237h101l-60 -346h-145z" />
<glyph unicode="&#x162;" horiz-adv-x="448" d="M32 1632v96h384v-96h-128v-1632h-128v1632h-128zM113 -395l58 409h106v-409h-164z" />
<glyph unicode="&#x163;" horiz-adv-x="416" d="M16 1440v96h384v-96h-128v-1440h-128v1440h-128zM97 -395l58 409h106v-409h-164z" />
<glyph unicode="&#x164;" horiz-adv-x="448" d="M32 1632v96h384v-96h-128v-1632h-128v1632h-128zM93 2211h100l30 -237l32 237h101l-60 -346h-145z" />
<glyph unicode="&#x165;" horiz-adv-x="416" d="M16 1440v96h384v-96h-128v-1440h-128v1440h-128zM391 1198v352h128l-32 -352h-96z" />
<glyph unicode="&#x166;" horiz-adv-x="364" d="M21 1091v105h327v-105h-327zM32 1632v96h384v-96h-128v-1632h-128v1632h-128z" />
<glyph unicode="&#x167;" horiz-adv-x="350" d="M16 1440v96h384v-96h-128v-1440h-128v1440h-128zM17 840v105h327v-105h-327z" />
<glyph unicode="&#x168;" d="M64 160v1568h128v-1568q0 -12 1 -28.5t7 -31.5t19 -25.5t37 -10.5t37 10.5t19 25.5t7 31.5t1 28.5v1568h128v-1568q0 -12 -3 -43.5t-21 -64.5t-57 -58.5t-111 -25.5t-111 25.5t-57 58.5t-21 64.5t-3 43.5zM66 1865q0 34 5.5 63t18 50.5t32 33.5t48.5 12q25 0 43.5 -6.5 t36.5 -15t38.5 -15t47.5 -6.5q10 0 16 6.5t9 14.5q5 9 6 22h79q0 -23 -2 -42.5t-8 -36.5q-10 -31 -32.5 -55.5t-67.5 -24.5q-25 0 -46.5 7t-41 15t-38.5 15t-39 7q-9 0 -14.5 -6.5t-8.5 -15.5q-3 -8 -3 -22h-79z" />
<glyph unicode="&#x169;" horiz-adv-x="480" d="M50 1672q0 34 5.5 63t18 50.5t32 33.5t48.5 12q25 0 43.5 -6.5t36.5 -15t38.5 -15t47.5 -6.5q10 0 16 6.5t9 14.5q5 9 6 22h79q0 -23 -2 -42.5t-8 -36.5q-10 -31 -32.5 -55.5t-67.5 -24.5q-25 0 -46.5 7t-41 15t-38.5 15t-39 7q-9 0 -14.5 -6.5t-8.5 -15.5q-3 -8 -3 -22 h-79zM64 144v1392h128v-1392q0 -36 15 -50t33 -14t33 14t15 50v1392h128v-1392q0 -42 -15 -72.5t-40 -50t-56.5 -28.5t-64.5 -9t-64.5 9t-56.5 28.5t-40 50t-15 72.5z" />
<glyph unicode="&#x16a;" d="M64 160v1568h128v-1568q0 -12 1 -28.5t7 -31.5t19 -25.5t37 -10.5t37 10.5t19 25.5t7 31.5t1 28.5v1568h128v-1568q0 -12 -3 -43.5t-21 -64.5t-57 -58.5t-111 -25.5t-111 25.5t-57 58.5t-21 64.5t-3 43.5zM92 1865v105h327v-105h-327z" />
<glyph unicode="&#x16b;" horiz-adv-x="480" d="M64 144v1392h128v-1392q0 -36 15 -50t33 -14t33 14t15 50v1392h128v-1392q0 -42 -15 -72.5t-40 -50t-56.5 -28.5t-64.5 -9t-64.5 9t-56.5 28.5t-40 50t-15 72.5zM76 1672v105h327v-105h-327z" />
<glyph unicode="&#x16c;" d="M64 160v1568h128v-1568q0 -12 1 -28.5t7 -31.5t19 -25.5t37 -10.5t37 10.5t19 25.5t7 31.5t1 28.5v1568h128v-1568q0 -12 -3 -43.5t-21 -64.5t-57 -58.5t-111 -25.5t-111 25.5t-57 58.5t-21 64.5t-3 43.5zM64 2089h101q0 -36 7 -57.5t19 -33t28.5 -15t35.5 -3.5 q21 0 38 3.5t29 15t18.5 33t6.5 57.5h101q0 -119 -45 -171.5t-145 -52.5q-103 0 -148.5 52.5t-45.5 171.5z" />
<glyph unicode="&#x16d;" horiz-adv-x="480" d="M48 1896h101q0 -36 7 -57.5t19 -33t28.5 -15t35.5 -3.5q21 0 38 3.5t29 15t18.5 33t6.5 57.5h101q0 -119 -45 -171.5t-145 -52.5q-103 0 -148.5 52.5t-45.5 171.5zM64 144v1392h128v-1392q0 -36 15 -50t33 -14t33 14t15 50v1392h128v-1392q0 -42 -15 -72.5t-40 -50 t-56.5 -28.5t-64.5 -9t-64.5 9t-56.5 28.5t-40 50t-15 72.5z" />
<glyph unicode="&#x16e;" d="M64 160v1568h128v-1568q0 -12 1 -28.5t7 -31.5t19 -25.5t37 -10.5t37 10.5t19 25.5t7 31.5t1 28.5v1568h128v-1568q0 -12 -3 -43.5t-21 -64.5t-57 -58.5t-111 -25.5t-111 25.5t-57 58.5t-21 64.5t-3 43.5zM113 2005q0 30 11 56t30 45t45 30t56 11q63 0 103 -40t40 -102 q0 -29 -11 -54.5t-30 -44.5t-45 -30t-57 -11q-30 0 -56 11t-45 30t-30 44.5t-11 54.5zM192 2006q0 -26 18 -44.5t45 -18.5q29 0 47 18.5t18 44.5q0 28 -18 45.5t-47 17.5q-27 0 -45 -17.5t-18 -45.5z" />
<glyph unicode="&#x16f;" horiz-adv-x="480" d="M64 144v1392h128v-1392q0 -36 15 -50t33 -14t33 14t15 50v1392h128v-1392q0 -42 -15 -72.5t-40 -50t-56.5 -28.5t-64.5 -9t-64.5 9t-56.5 28.5t-40 50t-15 72.5zM97 1812q0 30 11 56t30 45t45 30t56 11q63 0 103 -40t40 -102q0 -29 -11 -54.5t-30 -44.5t-45 -30t-57 -11 q-30 0 -56 11t-45 30t-30 44.5t-11 54.5zM176 1813q0 -26 18 -44.5t45 -18.5q29 0 47 18.5t18 44.5q0 28 -18 45.5t-47 17.5q-27 0 -45 -17.5t-18 -45.5z" />
<glyph unicode="&#x170;" d="M64 160v1568h128v-1568q0 -12 1 -28.5t7 -31.5t19 -25.5t37 -10.5t37 10.5t19 25.5t7 31.5t1 28.5v1568h128v-1568q0 -12 -3 -43.5t-21 -64.5t-57 -58.5t-111 -25.5t-111 25.5t-57 58.5t-21 64.5t-3 43.5zM133 1865l133 410h158l-190 -410h-101zM279 1865l184 410h158 l-241 -410h-101z" />
<glyph unicode="&#x171;" horiz-adv-x="480" d="M64 144v1392h128v-1392q0 -36 15 -50t33 -14t33 14t15 50v1392h128v-1392q0 -42 -15 -72.5t-40 -50t-56.5 -28.5t-64.5 -9t-64.5 9t-56.5 28.5t-40 50t-15 72.5zM117 1672l133 410h158l-190 -410h-101zM263 1672l184 410h158l-241 -410h-101z" />
<glyph unicode="&#x172;" horiz-adv-x="449" d="M64 160v1568h128v-1568q0 -12 1 -28.5t7 -31.5t19 -25.5t37 -10.5t37 10.5t19 25.5t7 31.5t1 28.5v1568h128v-1568q0 -12 -3 -43.5t-21 -64.5t-57 -58.5t-111 -25.5t-111 25.5t-57 58.5t-21 64.5t-3 43.5zM168 -130q0 57 73 130h50q-13 -20 -20 -40q-7 -17 -12.5 -38 t-5.5 -42q0 -38 19.5 -58.5t62.5 -20.5q24 0 44 6t36 13q10 5 18.5 9.5t17.5 10.5v-72q-16 -16 -32 -26q-16 -9 -38 -17t-53 -8q-38 0 -67.5 12t-50 32.5t-31.5 48.5t-11 60z" />
<glyph unicode="&#x173;" horiz-adv-x="439" d="M64 144v1392h128v-1392q0 -36 15 -50t33 -14t33 14t15 50v1392h128v-1392q0 -42 -15 -72.5t-40 -50t-56.5 -28.5t-64.5 -9t-64.5 9t-56.5 28.5t-40 50t-15 72.5zM157 -130q0 57 73 130h50q-13 -20 -20 -40q-7 -17 -12.5 -38t-5.5 -42q0 -38 19.5 -58.5t62.5 -20.5 q24 0 44 6t36 13q10 5 18.5 9.5t17.5 10.5v-72q-16 -16 -32 -26q-16 -9 -38 -17t-53 -8q-38 0 -67.5 12t-50 32.5t-31.5 48.5t-11 60z" />
<glyph unicode="&#x174;" horiz-adv-x="704" d="M32 1728h128l32 -1216l96 1216h128l96 -1216l32 1216h128l-96 -1728h-128l-64 992l-32 480l-32 -480l-64 -992h-128zM220 1865l59 346h146l59 -346h-102l-30 238l-31 -238h-101z" />
<glyph unicode="&#x176;" horiz-adv-x="448" d="M32 1728h128l32 -448l32 -448l32 448l32 448h128l-128 -1120v-608h-128v608zM92 1865l59 346h146l59 -346h-102l-30 238l-31 -238h-101z" />
<glyph unicode="&#x177;" horiz-adv-x="448" d="M32 1536h128l32 -384l32 -416l32 416l32 384h128l-128 -1024v-512h-128v512zM92 1672l59 346h146l59 -346h-102l-30 238l-31 -238h-101z" />
<glyph unicode="&#x178;" horiz-adv-x="448" d="M32 1728h128l32 -448l32 -448l32 448l32 448h128l-128 -1120v-608h-128v608zM51 1865v159h145v-159h-145zM254 1865v159h143v-159h-143z" />
<glyph unicode="&#x179;" horiz-adv-x="352" d="M32 0l160 1632h-160v96h288l-160 -1632h160v-96h-288zM128 1865l128 416h160l-192 -416h-96z" />
<glyph unicode="&#x17a;" horiz-adv-x="320" d="M32 0l128 1440h-128v96h256l-120 -1440h120v-96h-256zM112 1672l128 416h160l-192 -416h-96z" />
<glyph unicode="&#x17b;" horiz-adv-x="352" d="M32 0l160 1632h-160v96h288l-160 -1632h160v-96h-288zM85 1865v185h182v-185h-182z" />
<glyph unicode="&#x17c;" horiz-adv-x="320" d="M32 0l128 1440h-128v96h256l-120 -1440h120v-96h-256zM69 1672v185h182v-185h-182z" />
<glyph unicode="&#x17d;" horiz-adv-x="352" d="M32 0l160 1632h-160v96h288l-160 -1632h160v-96h-288zM45 2211h100l30 -237l32 237h101l-60 -346h-145z" />
<glyph unicode="&#x17e;" horiz-adv-x="320" d="M29 2018h100l30 -237l32 237h101l-60 -346h-145zM32 0l128 1440h-128v96h256l-120 -1440h120v-96h-256z" />
<glyph unicode="&#x192;" horiz-adv-x="439" d="M24 0l133 1520h294l-8 -98h-166l-49 -558h120l-10 -105h-119l-66 -759h-129z" />
<glyph unicode="&#x1cd;" horiz-adv-x="448" d="M32 0l96 1728h192l96 -1728h-128l-16 416h-95l-17 -416h-128zM93 2211h100l30 -237l32 237h101l-60 -346h-145zM177 512h95l-16 384l-32 768l-32 -768z" />
<glyph unicode="&#x1ce;" horiz-adv-x="448" d="M32 0l128 1536h128l128 -1536h-128l-20 332h-89l-19 -332h-128zM93 2018h100l30 -237l32 237h101l-60 -346h-145zM186 436h75l-37 780z" />
<glyph unicode="&#x1cf;" horiz-adv-x="288" d="M13 2211h100l30 -237l32 237h101l-60 -346h-145zM80 0v1728h128v-1728h-128z" />
<glyph unicode="&#x1d0;" horiz-adv-x="292" d="M15 2018h100l30 -237l32 237h101l-60 -346h-145zM79 0v1520h134v-1520h-134z" />
<glyph unicode="&#x1d1;" d="M64 160v1408q0 8 1 24t6 35.5t17 40t33 37.5t54 27.5t81 10.5t81 -10.5t54 -27.5t33 -37.5t17 -40t6 -35.5t1 -24v-1408q0 -12 -3 -43.5t-21 -64.5t-57 -58.5t-111 -25.5t-111 25.5t-57 58.5t-21 64.5t-3 43.5zM125 2211h100l30 -237l32 237h101l-60 -346h-145zM192 160 q0 -12 1 -28.5t7 -31.5t19 -25.5t37 -10.5t37 10.5t19 25.5t7 31.5t1 28.5v1408q0 12 -1 26t-7 25.5t-19 19.5t-37 8t-37 -8t-19 -19.5t-7 -25.5t-1 -26v-1408z" />
<glyph unicode="&#x1d2;" d="M64 144v1248q0 38 17.5 67.5t46 49.5t64.5 30.5t73 10.5q35 0 68 -9.5t58.5 -29t41 -49.5t15.5 -70v-1248q0 -42 -15.5 -72.5t-41.5 -50.5t-59 -29.5t-68 -9.5q-37 0 -73 10.5t-64 31t-45.5 51t-17.5 69.5zM133 2018h100l30 -237l32 237h101l-60 -346h-145zM192 144 q0 -14 6.5 -26t17 -20t23 -12.5t25.5 -4.5q22 0 39 14.5t17 48.5v1248q0 34 -16.5 48.5t-38.5 14.5q-13 0 -26 -4.5t-23.5 -13t-17 -20t-6.5 -25.5v-1248z" />
<glyph unicode="&#x1d3;" d="M64 160v1568h128v-1568q0 -12 1 -28.5t7 -31.5t19 -25.5t37 -10.5t37 10.5t19 25.5t7 31.5t1 28.5v1568h128v-1568q0 -12 -3 -43.5t-21 -64.5t-57 -58.5t-111 -25.5t-111 25.5t-57 58.5t-21 64.5t-3 43.5zM125 2211h100l30 -237l32 237h101l-60 -346h-145z" />
<glyph unicode="&#x1d4;" horiz-adv-x="480" d="M64 144v1392h128v-1392q0 -36 15 -50t33 -14t33 14t15 50v1392h128v-1392q0 -42 -15 -72.5t-40 -50t-56.5 -28.5t-64.5 -9t-64.5 9t-56.5 28.5t-40 50t-15 72.5zM109 2018h100l30 -237l32 237h101l-60 -346h-145z" />
<glyph unicode="&#x2c6;" horiz-adv-x="326" d="M31 84l59 346h146l59 -346h-102l-30 238l-31 -238h-101z" />
<glyph unicode="&#x2c7;" horiz-adv-x="326" d="M33 430h100l30 -237l32 237h101l-60 -346h-145z" />
<glyph unicode="&#x2d8;" horiz-adv-x="326" d="M-28 308h101q0 -36 7 -57.5t19 -33t28.5 -15t35.5 -3.5q21 0 38 3.5t29 15t18.5 33t6.5 57.5h101q0 -119 -45 -171.5t-145 -52.5q-103 0 -148.5 52.5t-45.5 171.5z" />
<glyph unicode="&#x2d9;" horiz-adv-x="254" d="M55 99v185h182v-185h-182z" />
<glyph unicode="&#x2da;" horiz-adv-x="326" d="M33 206q0 30 11 56t30 45t45 30t56 11q63 0 103 -40t40 -102q0 -29 -11 -54.5t-30 -44.5t-45 -30t-57 -11q-30 0 -56 11t-45 30t-30 44.5t-11 54.5zM112 207q0 -26 18 -44.5t45 -18.5q29 0 47 18.5t18 44.5q0 28 -18 45.5t-47 17.5q-27 0 -45 -17.5t-18 -45.5z" />
<glyph unicode="&#x2db;" horiz-adv-x="326" d="M63 -130q0 57 73 130h50q-13 -20 -20 -40q-7 -17 -12.5 -38t-5.5 -42q0 -38 19.5 -58.5t62.5 -20.5q24 0 44 6t36 13q10 5 18.5 9.5t17.5 10.5v-72q-16 -16 -32 -26q-16 -9 -38 -17t-53 -8q-38 0 -67.5 12t-50 32.5t-31.5 48.5t-11 60z" />
<glyph unicode="&#x2dc;" horiz-adv-x="326" d="M-15 101q0 34 5.5 63t18 50.5t32 33.5t48.5 12q25 0 43.5 -6.5t36.5 -15t38.5 -15t47.5 -6.5q10 0 16 6.5t9 14.5q5 9 6 22h79q0 -23 -2 -42.5t-8 -36.5q-10 -31 -32.5 -55.5t-67.5 -24.5q-25 0 -46.5 7t-41 15t-38.5 15t-39 7q-9 0 -14.5 -6.5t-8.5 -15.5q-3 -8 -3 -22 h-79z" />
<glyph unicode="&#x2dd;" horiz-adv-x="652" d="M47 84l133 410h158l-190 -410h-101zM193 84l184 410h158l-241 -410h-101z" />
<glyph unicode="&#x3c0;" horiz-adv-x="292" d="M79 0v1517h134v-1517h-134z" />
<glyph unicode="&#x45d;" horiz-adv-x="0" d="M53 512h160l128 -416h-96z" />
<glyph unicode="&#x1e44;" d="M64 0v1728h128l160 -1280v1280h96v-1728h-128l-160 1280v-1280h-96zM165 1865v185h182v-185h-182z" />
<glyph unicode="&#x1e60;" horiz-adv-x="448" d="M32 160v576h128v-576q0 -12 1 -28.5t7 -31.5t19 -25.5t37 -10.5t37 10.5t19 25.5t7 31.5t1 28.5v261q0 106 -11 182t-29 132.5t-41 98.5t-47 79t-47 74t-41 84t-29 108.5t-11 147.5v241q0 24 7.5 54.5t28.5 57t58.5 45t97.5 18.5t97.5 -18.5t58.5 -45t28.5 -57t7.5 -54.5 v-448h-128v448q0 24 -5.5 39.5t-14.5 24t-20.5 12t-23.5 3.5t-23.5 -3.5t-20.5 -12t-14.5 -24t-5.5 -39.5v-195q0 -113 19 -189t47.5 -132.5t61.5 -102.5t61.5 -99.5t47.5 -124t19 -175.5v-390q0 -12 -3 -43.5t-21 -64.5t-57 -58.5t-111 -25.5t-111 25.5t-57 58.5t-21 64.5 t-3 43.5zM133 1865v185h182v-185h-182z" />
<glyph unicode="&#x1e80;" horiz-adv-x="704" d="M32 1728h128l32 -1216l96 1216h128l96 -1216l32 1216h128l-96 -1728h-128l-64 992l-32 480l-32 -480l-64 -992h-128zM112 2281h160l128 -416h-96z" />
<glyph unicode="&#x1e82;" horiz-adv-x="704" d="M32 1728h128l32 -1216l96 1216h128l96 -1216l32 1216h128l-96 -1728h-128l-64 992l-32 480l-32 -480l-64 -992h-128zM304 1865l128 416h160l-192 -416h-96z" />
<glyph unicode="&#x1e83;" horiz-adv-x="640" d="M32 1536h128l32 -704v-641l32 641l32 704h128l32 -704l32 -641v641l32 704h128l-96 -1536h-128l-32 608l-32 672l-32 -672l-32 -608h-128zM272 1672l128 416h160l-192 -416h-96z" />
<glyph unicode="&#x1e84;" horiz-adv-x="704" d="M32 1728h128l32 -1216l96 1216h128l96 -1216l32 1216h128l-96 -1728h-128l-64 992l-32 480l-32 -480l-64 -992h-128zM179 1865v159h145v-159h-145zM382 1865v159h143v-159h-143z" />
<glyph unicode="&#x1e85;" horiz-adv-x="640" d="M32 1536h128l32 -704v-641l32 641l32 704h128l32 -704l32 -641v641l32 704h128l-96 -1536h-128l-32 608l-32 672l-32 -672l-32 -608h-128zM147 1672v159h145v-159h-145zM350 1672v159h143v-159h-143z" />
<glyph unicode="&#x1e86;" horiz-adv-x="704" d="M32 1728h128l32 -1216l96 1216h128l96 -1216l32 1216h128l-96 -1728h-128l-64 992l-32 480l-32 -480l-64 -992h-128zM261 1865v185h182v-185h-182z" />
<glyph unicode="&#x1e8e;" horiz-adv-x="448" d="M32 1728h128l32 -448l32 -448l32 448l32 448h128l-128 -1120v-608h-128v608zM133 1865v185h182v-185h-182z" />
<glyph unicode="&#x1e9e;" horiz-adv-x="0" />
<glyph unicode="&#x1ebd;" horiz-adv-x="352" d="M2 1672q0 34 5.5 63t18 50.5t32 33.5t48.5 12q25 0 43.5 -6.5t36.5 -15t38.5 -15t47.5 -6.5q10 0 16 6.5t9 14.5q5 9 6 22h79q0 -23 -2 -42.5t-8 -36.5q-10 -31 -32.5 -55.5t-67.5 -24.5q-25 0 -46.5 7t-41 15t-38.5 15t-39 7q-9 0 -14.5 -6.5t-8.5 -15.5q-3 -8 -3 -22 h-79zM64 0v1536h256v-96h-128v-576h128v-96h-128v-672h128v-96h-256z" />
<glyph unicode="&#x1ef2;" horiz-adv-x="448" d="M-16 2281h160l128 -416h-96zM32 1728h128l32 -448l32 -448l32 448l32 448h128l-128 -1120v-608h-128v608z" />
<glyph unicode="&#x1ef3;" horiz-adv-x="448" d="M-16 2088h160l128 -416h-96zM32 1536h128l32 -384l32 -416l32 416l32 384h128l-128 -1024v-512h-128v512z" />
<glyph unicode="&#x1ef8;" horiz-adv-x="448" d="M32 1728h128l32 -448l32 -448l32 448l32 448h128l-128 -1120v-608h-128v608zM34 1865q0 34 5.5 63t18 50.5t32 33.5t48.5 12q25 0 43.5 -6.5t36.5 -15t38.5 -15t47.5 -6.5q10 0 16 6.5t9 14.5q5 9 6 22h79q0 -23 -2 -42.5t-8 -36.5q-10 -31 -32.5 -55.5t-67.5 -24.5 q-25 0 -46.5 7t-41 15t-38.5 15t-39 7q-9 0 -14.5 -6.5t-8.5 -15.5q-3 -8 -3 -22h-79z" />
<glyph unicode="&#x2000;" horiz-adv-x="1140" />
<glyph unicode="&#x2001;" horiz-adv-x="2281" />
<glyph unicode="&#x2002;" horiz-adv-x="1140" />
<glyph unicode="&#x2003;" horiz-adv-x="2281" />
<glyph unicode="&#x2004;" horiz-adv-x="760" />
<glyph unicode="&#x2005;" horiz-adv-x="570" />
<glyph unicode="&#x2006;" horiz-adv-x="380" />
<glyph unicode="&#x2007;" horiz-adv-x="380" />
<glyph unicode="&#x2008;" horiz-adv-x="285" />
<glyph unicode="&#x2009;" horiz-adv-x="456" />
<glyph unicode="&#x200a;" horiz-adv-x="126" />
<glyph unicode="&#x2010;" horiz-adv-x="544" d="M32 704v128h480v-128h-480z" />
<glyph unicode="&#x2011;" horiz-adv-x="544" d="M32 704v128h480v-128h-480z" />
<glyph unicode="&#x2012;" horiz-adv-x="544" d="M32 704v128h480v-128h-480z" />
<glyph unicode="&#x2013;" horiz-adv-x="691" d="M23 750v135h645v-135h-645z" />
<glyph unicode="&#x2014;" horiz-adv-x="691" d="M23 750v135h645v-135h-645z" />
<glyph unicode="&#x2018;" horiz-adv-x="488" d="M7 1403l74 360h85v-360h-159z" />
<glyph unicode="&#x2019;" horiz-adv-x="488" d="M241 1761h159l-74 -359h-84z" />
<glyph unicode="&#x201a;" horiz-adv-x="488" d="M7 0l74 360h85v-360h-159z" />
<glyph unicode="&#x201c;" horiz-adv-x="488" d="M7 1403l74 360h85v-360h-159zM226 1403l74 360h84l1 -360h-159z" />
<glyph unicode="&#x201d;" horiz-adv-x="488" d="M21 1761h160l-73 -359h-85zM241 1761h159l-74 -359h-84z" />
<glyph unicode="&#x201e;" horiz-adv-x="488" d="M241 360h159l-74 -360h-84z" />
<glyph unicode="&#x2020;" horiz-adv-x="350" d="M0 1005v99h114v220h126v-220h108v-99h-110v-869h-126v869h-112z" />
<glyph unicode="&#x2021;" horiz-adv-x="659" d="M24 525v130h240v597h-240v130h240v379h133v-379h238v-130h-238v-597h238v-130h-238v-525h-133v525h-240z" />
<glyph unicode="&#x2022;" horiz-adv-x="458" d="M52 689v470q0 32 14 60t38 49t56.5 33t69.5 12q35 0 67 -11t56 -31.5t38.5 -48t14.5 -60.5v-479q0 -31 -14.5 -58.5t-38.5 -48t-56 -32.5t-67 -12q-37 0 -69.5 12t-56.5 33.5t-38 50t-14 61.5z" />
<glyph unicode="&#x2026;" horiz-adv-x="918" d="M32 0v160h160v-160h-160zM360 0v160h160v-160h-160zM692 0v160h160v-160h-160z" />
<glyph unicode="&#x202f;" horiz-adv-x="456" />
<glyph unicode="&#x2030;" horiz-adv-x="280" d="M1 0l189 1761h134l-189 -1761h-134z" />
<glyph unicode="&#x2039;" horiz-adv-x="342" d="M20 881l283 579v-284l-147 -295l147 -273v-307z" />
<glyph unicode="&#x203a;" horiz-adv-x="720" d="M193 301l283 580l-283 579v-284l147 -295l-147 -273v-307z" />
<glyph unicode="&#x2044;" horiz-adv-x="324" d="M1 0l189 1761h134l-189 -1761h-134z" />
<glyph unicode="&#x205f;" horiz-adv-x="570" />
<glyph unicode="&#x20ac;" horiz-adv-x="538" d="M-12 870v106h153v54h-150v107h150v497q0 32 13.5 59.5t38 47.5t58 31.5t74.5 11.5q40 0 73.5 -11.5t57.5 -31t37.5 -46.5t13.5 -57v-290h-135v280q0 16 -14 27.5t-33 11.5q-23 0 -37 -11.5t-14 -27.5v-491h238l-12 -107h-226v-54h211l-12 -106h-199v-743q0 -16 15 -27.5 t35 -11.5q19 0 33.5 11.5t14.5 27.5v494h135v-494q0 -32 -13 -59t-37 -46.5t-58 -31t-75 -11.5q-38 0 -71.5 12t-58.5 32t-39 47.5t-14 59.5v740h-153z" />
<glyph unicode="&#x2116;" horiz-adv-x="937" d="M55 0v1761h132l111 -1023v1023h126v-1761h-135l-100 982v-982h-134zM531 135v1256q0 31 14.5 59t39 49t57 33.5t68.5 12.5q34 0 66 -11.5t56 -31.5t38.5 -48t14.5 -61v-1263q0 -31 -14.5 -58.5t-38.5 -48t-56 -32.5t-66 -12q-36 0 -68.5 12t-57 33t-39 49.5t-14.5 61.5z M669 109q0 -8 10.5 -19.5t30.5 -11.5q15 0 25.5 9t10.5 22v1306q0 15 -10.5 25t-25.5 10q-17 0 -29 -10t-12 -25v-1306z" />
<glyph unicode="&#x2122;" horiz-adv-x="958" d="M24 1644v117h364v-117h-115v-864h-135v864h-114zM419 780v981h137l111 -572l109 572h136v-981h-135v526l-80 -526h-60l-82 526v-526h-136z" />
<glyph unicode="&#x2126;" horiz-adv-x="513" d="M30 0v107h100q-16 29 -30 74q-12 39 -21 97.5t-9 142.5v1142q0 37 5.5 76t25 70.5t57 52t101.5 20.5q63 0 100.5 -20.5t57 -52t25.5 -70.5t6 -76v-1142q0 -84 -9.5 -142.5t-20.5 -97.5q-14 -45 -30 -74h96v-107h-202v107q4 15 7.5 33.5t6.5 40.5q5 39 9.5 97.5t4.5 143.5 v1141v47q0 21 -4 36.5t-15 24.5t-32 9q-22 0 -32.5 -9t-15 -24.5t-4.5 -36.5v-47v-1141q0 -85 4.5 -143.5t9.5 -97.5q6 -44 15 -74v-107h-206z" />
<glyph unicode="&#x2202;" horiz-adv-x="448" d="M36 159v630q0 85 56.5 119t167.5 34v818h135v-1600q0 -38 -14 -67.5t-38 -50.5t-57 -32t-72 -11q-37 0 -69.5 11t-56.5 31.5t-38 50t-14 67.5zM175 148q0 -22 12.5 -33.5t29.5 -11.5t30 11.5t13 35.5v676q-46 0 -65.5 -8t-19.5 -35v-635z" />
<glyph unicode="&#x2206;" horiz-adv-x="436" d="M24 0l99 1761h190l99 -1761h-388zM156 114h122l-61 1361z" />
<glyph unicode="&#x220f;" horiz-adv-x="1474" d="M24 1068q0 98 25.5 189t72 170.5t111.5 144.5t144.5 111.5t170.5 72t189 25.5t189 -25.5t170 -72t144.5 -111.5t112 -144.5t72 -170.5t25.5 -189t-25.5 -189t-72 -170t-112 -144.5t-144.5 -112t-170 -72t-189 -25.5t-189 25.5t-170.5 72t-144.5 112t-111.5 144.5t-72 170 t-25.5 189zM156 1068q0 -122 45 -229.5t123.5 -187.5t184.5 -126.5t228 -46.5q81 0 155.5 21t139 59.5t117.5 92.5t90.5 119.5t58 140.5t20.5 157q0 81 -20.5 156t-58 141t-90.5 119.5t-117.5 92.5t-139 60t-155.5 21q-82 0 -156.5 -21t-139 -60t-117 -92.5t-90 -119.5 t-58 -141t-20.5 -156zM601 548v1033h167q34 0 64 -10t52 -27.5t35 -41t13 -50.5v-301q0 -38 -16.5 -63.5t-44 -42t-64 -24t-76.5 -9.5v-464h-130zM734 1119q37 0 53 6t16 22v305q0 17 -17.5 23.5t-51.5 6.5v-363z" />
<glyph unicode="&#x2211;" horiz-adv-x="362" d="M39 0l62 932l-62 829h313v-117h-180l53 -648h128v-120h-128l-53 -764h180v-112h-313z" />
<glyph unicode="&#x2212;" horiz-adv-x="488" d="M41 750v135h404v-135h-404z" />
<glyph unicode="&#x221a;" horiz-adv-x="536" d="M0 808v80h256l60 -575l57 1448h141l-95 -1761h-194l-95 808h-130z" />
<glyph unicode="&#x221e;" horiz-adv-x="743" d="M15 854q0 46 10 88t30 74t51.5 51.5t73.5 19.5q46 0 82 -26t66 -64q12 -16 23 -32t22 -33q11 17 22 33t23 32q30 38 65 64t80 26q41 0 72 -19.5t51.5 -51.5t31 -74t10.5 -88q0 -47 -10.5 -89.5t-31 -74.5t-51.5 -51.5t-72 -19.5q-45 0 -80 26t-65 64q-12 15 -23 31.5 t-22 33.5q-11 -17 -22 -33.5t-23 -31.5q-30 -38 -66 -64t-82 -26q-42 0 -73.5 19.5t-51.5 51.5t-30 74.5t-10 89.5zM107 854q0 -23 3.5 -44t13 -36.5t26.5 -24.5t43 -9q37 0 65 25.5t54 64.5l16 22l-16 24q-26 39 -54 65t-65 26q-26 0 -43 -9t-26.5 -24.5t-13 -36 t-3.5 -43.5zM408 852l16 -22q26 -39 54.5 -64.5t64.5 -25.5q26 0 43 9t26.5 24.5t13 36.5t3.5 44t-3.5 43.5t-13 36t-26.5 24.5t-43 9q-36 0 -64.5 -26t-54.5 -65z" />
<glyph unicode="&#x222b;" horiz-adv-x="433" d="M24 0l133 1520h294l-8 -98h-166l-49 -558h120l-10 -105h-119l-66 -759h-129z" />
<glyph unicode="&#x2248;" horiz-adv-x="701" d="M24 599q0 34 5 63t16 50.5t30 34t48 12.5q16 0 51 -3t79.5 -8t94 -10.5t95 -10.5t82 -8t54.5 -3q10 0 16 6t8 15q4 11 5 22h67q2 -47 -9 -80q-6 -15 -14 -29t-19 -25.5t-27.5 -18.5t-38.5 -7q-17 0 -53 3.5t-81.5 8.5t-95 10.5t-93.5 10.5t-77.5 8.5t-46.5 3.5 q-11 0 -16 -7t-8 -16q-3 -8 -3 -22h-69zM24 795q0 33 5 62t16 50.5t30 34t48 12.5q16 0 51 -3.5t79.5 -8t94 -10.5t95 -10.5t82 -8t54.5 -3.5q10 0 16 7t8 15q4 11 5 22h67q5 -47 -6 -80q-8 -32 -30 -55.5t-66 -23.5q-17 0 -53.5 3.5t-82.5 8t-97 10.5t-95.5 10.5t-78.5 8 t-46 3.5q-11 0 -16 -7t-8 -16q-3 -8 -3 -21h-69z" />
<glyph unicode="&#x2260;" horiz-adv-x="752" d="M62 512v128h512v-128h-512zM62 736v128h512v-128h-512z" />
<glyph unicode="&#x2264;" horiz-adv-x="425" d="M15 881l386 459v-260l-190 -199l190 -177v-265zM23 243v146h377v-146h-377z" />
<glyph unicode="&#x2265;" horiz-adv-x="425" d="M24 439v265l190 177l-190 199v260l385 -459zM25 243v146h377v-146h-377z" />
<glyph unicode="&#x25ca;" horiz-adv-x="458" d="M52 135v1496q0 32 14 59.5t38 48t56.5 32.5t69.5 12q35 0 67 -11.5t56 -31.5t38.5 -47.5t14.5 -60.5v-1502q0 -31 -14.5 -58.5t-38.5 -48t-56 -32.5t-67 -12q-37 0 -69.5 12t-56.5 33t-38 49.5t-14 61.5zM117 985l21 -837q0 -37 21 -63.5t71 -26.5q24 0 40 7.5t25.5 19.5 t14 26t6.5 28l22 855q-2 -7 -4.5 -35t-6 -65.5t-7.5 -80t-8.5 -77.5t-10.5 -57.5t-12 -21.5q3 62 3 119.5t-2.5 106t-5.5 86.5t-6 61l-5 35l-1 -47q-1 -46 -4 -113t-9 -148q-4 -41 -7.5 -77.5t-8.5 -68.5q-12 33 -19 73.5t-11.5 82.5t-6 84t-1 79.5t1.5 67t3 47.5l1 23 q-15 -29 -22 -76t-9.5 -109.5t-0.5 -138t5 -159.5q-18 33 -28.5 87t-16.5 113t-10.5 113t-11.5 87z" />
<glyph unicode="&#x25fc;" horiz-adv-x="1535" d="M0 0v1535h1535v-1535h-1535z" />
<glyph unicode="&#xfb01;" horiz-adv-x="648" d="M128 0v1536h288v-96h-160v-576h128v-96h-128v-768h-128zM457 0v1536h128v-1536h-128z" />
<glyph unicode="&#xfb02;" horiz-adv-x="667" d="M128 0v1536h288v-96h-160v-576h128v-96h-128v-768h-128zM419 0v1536h128v-1440h128v-96h-256z" />
<glyph horiz-adv-x="0" />
<glyph horiz-adv-x="0" />
<glyph horiz-adv-x="0" />
<glyph horiz-adv-x="0" />
<glyph horiz-adv-x="0" />
<glyph horiz-adv-x="0" />
<glyph horiz-adv-x="0" />
<glyph horiz-adv-x="0" />
<glyph horiz-adv-x="0" />
<glyph horiz-adv-x="0" />
<glyph horiz-adv-x="0" />
<glyph horiz-adv-x="0" />
<glyph horiz-adv-x="458" d="M52 135v1496q0 32 14 59.5t38 48t56.5 32.5t69.5 12q35 0 67 -11.5t56 -31.5t38.5 -47.5t14.5 -60.5v-1502q0 -31 -14.5 -58.5t-38.5 -48t-56 -32.5t-67 -12q-37 0 -69.5 12t-56.5 33t-38 49.5t-14 61.5zM117 985l21 -837q0 -37 21 -63.5t71 -26.5q24 0 40 7.5t25.5 19.5 t14 26t6.5 28l22 855q-2 -7 -4.5 -35t-6 -65.5t-7.5 -80t-8.5 -77.5t-10.5 -57.5t-12 -21.5q3 62 3 119.5t-2.5 106t-5.5 86.5t-6 61l-5 35l-1 -47q-1 -46 -4 -113t-9 -148q-4 -41 -7.5 -77.5t-8.5 -68.5q-12 33 -19 73.5t-11.5 82.5t-6 84t-1 79.5t1.5 67t3 47.5l1 23 q-15 -29 -22 -76t-9.5 -109.5t-0.5 -138t5 -159.5q-18 33 -28.5 87t-16.5 113t-10.5 113t-11.5 87z" />
<glyph horiz-adv-x="376" d="M57 1705q0 30 11 56t30 45t45 30t56 11q63 0 103 -40t40 -102q0 -29 -11 -54.5t-30 -44.5t-45 -30t-57 -11q-30 0 -56 11t-45 30t-30 44.5t-11 54.5zM128 0v1536h256v-96h-128v-576h128v-96h-128v-672h128v-96h-256zM136 1706q0 -26 18 -44.5t45 -18.5q29 0 47 18.5 t18 44.5q0 28 -18 45.5t-47 17.5q-27 0 -45 -17.5t-18 -45.5z" />
<glyph horiz-adv-x="244" d="M-14 1708q0 30 11 56t30 45t45 30t56 11q63 0 103 -40t40 -102q0 -29 -11 -54.5t-30 -44.5t-45 -30t-57 -11q-30 0 -56 11t-45 30t-30 44.5t-11 54.5zM65 1709q0 -26 18 -44.5t45 -18.5q29 0 47 18.5t18 44.5q0 28 -18 45.5t-47 17.5q-27 0 -45 -17.5t-18 -45.5zM80 0 v1536h128v-1536h-128z" />
<glyph horiz-adv-x="458" d="M87 1708q0 30 11 56t30 45t45 30t56 11q63 0 103 -40t40 -102q0 -29 -11 -54.5t-30 -44.5t-45 -30t-57 -11q-30 0 -56 11t-45 30t-30 44.5t-11 54.5zM128 144v1248q0 38 17.5 67.5t46 49.5t64.5 30.5t73 10.5q35 0 68 -9.5t58.5 -29t41 -49.5t15.5 -70v-1248 q0 -42 -15.5 -72.5t-41.5 -50.5t-59 -29.5t-68 -9.5q-37 0 -73 10.5t-64 31t-45.5 51t-17.5 69.5zM166 1709q0 -26 18 -44.5t45 -18.5q29 0 47 18.5t18 44.5q0 28 -18 45.5t-47 17.5q-27 0 -45 -17.5t-18 -45.5zM256 144q0 -14 6.5 -26t17 -20t23 -12.5t25.5 -4.5 q22 0 39 14.5t17 48.5v1248q0 34 -16.5 48.5t-38.5 14.5q-13 0 -26 -4.5t-23.5 -13t-17 -20t-6.5 -25.5v-1248z" />
<glyph horiz-adv-x="413" d="M64 1728h128l32 -448l32 -448l32 448l32 448h128l-128 -1120v-608h-128v608zM70 2176h100l30 -237l32 237h101l-60 -346h-145z" />
<glyph horiz-adv-x="427" d="M2 1536h128l32 -384l32 -416l32 416l32 384h128l-128 -1024v-512h-128v512zM72 1942h100l30 -237l32 237h101l-60 -346h-145z" />
<glyph horiz-adv-x="390" d="M64 0v1728h288v-96h-160v-672h128v-96h-128v-768h160v-96h-288zM75 1959q0 30 11 56t30 45t45 30t56 11q63 0 103 -40t40 -102q0 -29 -11 -54.5t-30 -44.5t-45 -30t-57 -11q-30 0 -56 11t-45 30t-30 44.5t-11 54.5zM154 1960q0 -26 18 -44.5t45 -18.5q29 0 47 18.5 t18 44.5q0 28 -18 45.5t-47 17.5q-27 0 -45 -17.5t-18 -45.5z" />
<glyph horiz-adv-x="247" d="M-15 1952q0 30 11 56t30 45t45 30t56 11q63 0 103 -40t40 -102q0 -29 -11 -54.5t-30 -44.5t-45 -30t-57 -11q-30 0 -56 11t-45 30t-30 44.5t-11 54.5zM64 1953q0 -26 18 -44.5t45 -18.5q29 0 47 18.5t18 44.5q0 28 -18 45.5t-47 17.5q-27 0 -45 -17.5t-18 -45.5zM80 0 v1728h128v-1728h-128z" />
<glyph horiz-adv-x="428" d="M49 1588v159h145v-159h-145zM128 144v1248q0 40 16.5 71t43.5 51t62 30.5t71 10.5t70 -10t61 -30.5t43.5 -51t16.5 -71.5v-496h-128v496q0 34 -17 48.5t-39 14.5q-13 0 -25.5 -4.5t-23 -13t-17 -20t-6.5 -25.5v-1248q0 -14 6.5 -26t17 -20.5t23 -13t25.5 -4.5q22 0 39 15 t17 49v560h128v-560q0 -40 -17 -70.5t-44 -51t-62 -31t-71 -10.5t-70 10t-61 30.5t-43 51t-16 71.5zM252 1588v159h143v-159h-143z" />
<glyph horiz-adv-x="451" d="M57 1588v159h145v-159h-145zM97 0v1536h96l177 -928v928h111v-1536h-96l-176 896v-896h-112zM260 1588v159h143v-159h-143z" />
<glyph horiz-adv-x="406" d="M33 1588v159h145v-159h-145zM65 144v400h128v-400q0 -36 15 -50t33 -14t33 14t15 50q0 129 -12.5 226.5t-31.5 172t-41.5 130.5t-41.5 103q-19 46 -36.5 105t-31 134t-21.5 168.5t-8 208.5q0 42 15 72t40 49.5t56.5 29t64.5 9.5t64.5 -9.5t56.5 -29t40 -49.5t15 -72v-400 h-128v400q0 36 -15 50t-33 14t-33 -14t-15 -50q0 -107 10 -197t26 -166t36 -138.5t40 -114.5q16 -41 35.5 -95t36.5 -129t28.5 -175t11.5 -233q0 -42 -15 -72.5t-40 -50t-56.5 -28.5t-64.5 -9t-64.5 9t-56.5 28.5t-40 50t-15 72.5zM236 1588v159h143v-159h-143z" />
<glyph horiz-adv-x="326" d="M-4 1588v159h145v-159h-145zM32 0l128 1440h-128v96h256l-120 -1440h120v-96h-256zM199 1588v159h143v-159h-143z" />
<glyph horiz-adv-x="421" d="M71 0l96 1728h192l96 -1728h-128l-16 416h-95l-17 -416h-128zM100 -443l58 409h106v-409h-164zM216 512h95l-16 384l-32 768l-32 -768z" />
<glyph horiz-adv-x="390" d="M64 0v1728h288v-96h-160v-672h128v-96h-128v-768h160v-96h-288zM80 -409l58 409h106v-409h-164z" />
<glyph horiz-adv-x="479" d="M64 0v1728h128l160 -1280v1280h96v-1728h-128l-160 1280v-1280h-96zM70 1822v159h145v-159h-145zM273 1822v159h143v-159h-143z" />
<glyph horiz-adv-x="448" d="M46 1822v159h145v-159h-145zM64 160v576h128v-576q0 -12 1 -28.5t7 -31.5t19 -25.5t37 -10.5t37 10.5t19 25.5t7 31.5t1 28.5v261q0 106 -11 182t-29 132.5t-41 98.5t-47 79t-47 74t-41 84t-29 108.5t-11 147.5v241q0 24 7.5 54.5t28.5 57t58.5 45t97.5 18.5t97.5 -18.5 t58.5 -45t28.5 -57t7.5 -54.5v-448h-128v448q0 24 -5.5 39.5t-14.5 24t-20.5 12t-23.5 3.5t-23.5 -3.5t-20.5 -12t-14.5 -24t-5.5 -39.5v-195q0 -113 19 -189t47.5 -132.5t61.5 -102.5t61.5 -99.5t47.5 -124t19 -175.5v-390q0 -12 -3 -43.5t-21 -64.5t-57 -58.5t-111 -25.5 t-111 25.5t-57 58.5t-21 64.5t-3 43.5zM249 1822v159h143v-159h-143z" />
<glyph horiz-adv-x="479" d="M16 2258h160l128 -416h-96zM64 0v1728h128l160 -1280v1280h96v-1728h-128l-160 1280v-1280h-96z" />
<glyph horiz-adv-x="448" d="M64 160v576h128v-576q0 -12 1 -28.5t7 -31.5t19 -25.5t37 -10.5t37 10.5t19 25.5t7 31.5t1 28.5v261q0 106 -11 182t-29 132.5t-41 98.5t-47 79t-47 74t-41 84t-29 108.5t-11 147.5v241q0 24 7.5 54.5t28.5 57t58.5 45t97.5 18.5t97.5 -18.5t58.5 -45t28.5 -57t7.5 -54.5 v-448h-128v448q0 24 -5.5 39.5t-14.5 24t-20.5 12t-23.5 3.5t-23.5 -3.5t-20.5 -12t-14.5 -24t-5.5 -39.5v-195q0 -113 19 -189t47.5 -132.5t61.5 -102.5t61.5 -99.5t47.5 -124t19 -175.5v-390q0 -12 -3 -43.5t-21 -64.5t-57 -58.5t-111 -25.5t-111 25.5t-57 58.5t-21 64.5 t-3 43.5zM82 2258h160l128 -416h-96z" />
<glyph horiz-adv-x="412" d="M64 0l128 1536h128l128 -1536h-128l-20 332h-89l-19 -332h-128zM126 1595v185h182v-185h-182zM218 436h75l-37 780z" />
<glyph horiz-adv-x="244" d="M35 1601v185h182v-185h-182zM80 0v1536h128v-1536h-128z" />
<glyph horiz-adv-x="458" d="M128 144v1248q0 38 17.5 67.5t46 49.5t64.5 30.5t73 10.5q35 0 68 -9.5t58.5 -29t41 -49.5t15.5 -70v-1248q0 -42 -15.5 -72.5t-41.5 -50.5t-59 -29.5t-68 -9.5q-37 0 -73 10.5t-64 31t-45.5 51t-17.5 69.5zM136 1601v185h182v-185h-182zM256 144q0 -14 6.5 -26t17 -20 t23 -12.5t25.5 -4.5q22 0 39 14.5t17 48.5v1248q0 34 -16.5 48.5t-38.5 14.5q-13 0 -26 -4.5t-23.5 -13t-17 -20t-6.5 -25.5v-1248z" />
<glyph horiz-adv-x="413" d="M40 1833v105h327v-105h-327zM64 1728h128l32 -448l32 -448l32 448l32 448h128l-128 -1120v-608h-128v608z" />
<glyph horiz-adv-x="413" d="M8 2054h101q0 -36 7 -57.5t19 -33t28.5 -15t35.5 -3.5q21 0 38 3.5t29 15t18.5 33t6.5 57.5h101q0 -119 -45 -171.5t-145 -52.5q-103 0 -148.5 52.5t-45.5 171.5zM64 1728h128l32 -448l32 -448l32 448l32 448h128l-128 -1120v-608h-128v608z" />
<glyph horiz-adv-x="413" d="M62 1952q0 30 11 56t30 45t45 30t56 11q63 0 103 -40t40 -102q0 -29 -11 -54.5t-30 -44.5t-45 -30t-57 -11q-30 0 -56 11t-45 30t-30 44.5t-11 54.5zM64 1728h128l32 -448l32 -448l32 448l32 448h128l-128 -1120v-608h-128v608zM141 1953q0 -26 18 -44.5t45 -18.5 q29 0 47 18.5t18 44.5q0 28 -18 45.5t-47 17.5q-27 0 -45 -17.5t-18 -45.5z" />
<glyph horiz-adv-x="719" d="M32 1728h128l32 -1216l96 1216h128l96 -1216l32 1216h128l-96 -1728h-128l-64 992l-32 480l-32 -480l-64 -992h-128zM156 1844q0 34 5.5 63t18 50.5t32 33.5t48.5 12q25 0 43.5 -6.5t36.5 -15t38.5 -15t47.5 -6.5q10 0 16 6.5t9 14.5q5 9 6 22h79q0 -23 -2 -42.5 t-8 -36.5q-10 -31 -32.5 -55.5t-67.5 -24.5q-25 0 -46.5 7t-41 15t-38.5 15t-39 7q-9 0 -14.5 -6.5t-8.5 -15.5q-3 -8 -3 -22h-79z" />
<glyph horiz-adv-x="719" d="M32 1728h128l32 -1216l96 1216h128l96 -1216l32 1216h128l-96 -1728h-128l-64 992l-32 480l-32 -480l-64 -992h-128zM192 1830v105h327v-105h-327z" />
<glyph horiz-adv-x="719" d="M32 1728h128l32 -1216l96 1216h128l96 -1216l32 1216h128l-96 -1728h-128l-64 992l-32 480l-32 -480l-64 -992h-128zM156 2051h101q0 -36 7 -57.5t19 -33t28.5 -15t35.5 -3.5q21 0 38 3.5t29 15t18.5 33t6.5 57.5h101q0 -119 -45 -171.5t-145 -52.5q-103 0 -148.5 52.5 t-45.5 171.5z" />
<glyph horiz-adv-x="719" d="M32 1728h128l32 -1216l96 1216h128l96 -1216l32 1216h128l-96 -1728h-128l-64 992l-32 480l-32 -480l-64 -992h-128zM210 1949q0 30 11 56t30 45t45 30t56 11q63 0 103 -40t40 -102q0 -29 -11 -54.5t-30 -44.5t-45 -30t-57 -11q-30 0 -56 11t-45 30t-30 44.5t-11 54.5z M289 1950q0 -26 18 -44.5t45 -18.5q29 0 47 18.5t18 44.5q0 28 -18 45.5t-47 17.5q-27 0 -45 -17.5t-18 -45.5z" />
<glyph horiz-adv-x="719" d="M32 1728h128l32 -1216l96 1216h128l96 -1216l32 1216h128l-96 -1728h-128l-64 992l-32 480l-32 -480l-64 -992h-128zM217 2173h100l30 -237l32 237h101l-60 -346h-145z" />
<glyph horiz-adv-x="451" d="M67 160v1568h128v-1568q0 -12 1 -28.5t7 -31.5t19 -25.5t37 -10.5t37 10.5t19 25.5t7 31.5t1 28.5v1568h128v-1568q0 -12 -3 -43.5t-21 -64.5t-57 -58.5t-111 -25.5t-111 25.5t-57 58.5t-21 64.5t-3 43.5zM137 1845v185h182v-185h-182z" />
<glyph horiz-adv-x="448" d="M30 1847q0 34 5.5 63t18 50.5t32 33.5t48.5 12q25 0 43.5 -6.5t36.5 -15t38.5 -15t47.5 -6.5q10 0 16 6.5t9 14.5q5 9 6 22h79q0 -23 -2 -42.5t-8 -36.5q-10 -31 -32.5 -55.5t-67.5 -24.5q-25 0 -46.5 7t-41 15t-38.5 15t-39 7q-9 0 -14.5 -6.5t-8.5 -15.5q-3 -8 -3 -22 h-79zM64 160v576h128v-576q0 -12 1 -28.5t7 -31.5t19 -25.5t37 -10.5t37 10.5t19 25.5t7 31.5t1 28.5v261q0 106 -11 182t-29 132.5t-41 98.5t-47 79t-47 74t-41 84t-29 108.5t-11 147.5v241q0 24 7.5 54.5t28.5 57t58.5 45t97.5 18.5t97.5 -18.5t58.5 -45t28.5 -57 t7.5 -54.5v-448h-128v448q0 24 -5.5 39.5t-14.5 24t-20.5 12t-23.5 3.5t-23.5 -3.5t-20.5 -12t-14.5 -24t-5.5 -39.5v-195q0 -113 19 -189t47.5 -132.5t61.5 -102.5t61.5 -99.5t47.5 -124t19 -175.5v-390q0 -12 -3 -43.5t-21 -64.5t-57 -58.5t-111 -25.5t-111 25.5t-57 58.5 t-21 64.5t-3 43.5z" />
<glyph horiz-adv-x="448" d="M62 1833v105h327v-105h-327zM64 160v576h128v-576q0 -12 1 -28.5t7 -31.5t19 -25.5t37 -10.5t37 10.5t19 25.5t7 31.5t1 28.5v261q0 106 -11 182t-29 132.5t-41 98.5t-47 79t-47 74t-41 84t-29 108.5t-11 147.5v241q0 24 7.5 54.5t28.5 57t58.5 45t97.5 18.5t97.5 -18.5 t58.5 -45t28.5 -57t7.5 -54.5v-448h-128v448q0 24 -5.5 39.5t-14.5 24t-20.5 12t-23.5 3.5t-23.5 -3.5t-20.5 -12t-14.5 -24t-5.5 -39.5v-195q0 -113 19 -189t47.5 -132.5t61.5 -102.5t61.5 -99.5t47.5 -124t19 -175.5v-390q0 -12 -3 -43.5t-21 -64.5t-57 -58.5t-111 -25.5 t-111 25.5t-57 58.5t-21 64.5t-3 43.5z" />
<glyph horiz-adv-x="448" d="M30 2054h101q0 -36 7 -57.5t19 -33t28.5 -15t35.5 -3.5q21 0 38 3.5t29 15t18.5 33t6.5 57.5h101q0 -119 -45 -171.5t-145 -52.5q-103 0 -148.5 52.5t-45.5 171.5zM64 160v576h128v-576q0 -12 1 -28.5t7 -31.5t19 -25.5t37 -10.5t37 10.5t19 25.5t7 31.5t1 28.5v261 q0 106 -11 182t-29 132.5t-41 98.5t-47 79t-47 74t-41 84t-29 108.5t-11 147.5v241q0 24 7.5 54.5t28.5 57t58.5 45t97.5 18.5t97.5 -18.5t58.5 -45t28.5 -57t7.5 -54.5v-448h-128v448q0 24 -5.5 39.5t-14.5 24t-20.5 12t-23.5 3.5t-23.5 -3.5t-20.5 -12t-14.5 -24 t-5.5 -39.5v-195q0 -113 19 -189t47.5 -132.5t61.5 -102.5t61.5 -99.5t47.5 -124t19 -175.5v-390q0 -12 -3 -43.5t-21 -64.5t-57 -58.5t-111 -25.5t-111 25.5t-57 58.5t-21 64.5t-3 43.5z" />
<glyph horiz-adv-x="448" d="M64 160v576h128v-576q0 -12 1 -28.5t7 -31.5t19 -25.5t37 -10.5t37 10.5t19 25.5t7 31.5t1 28.5v261q0 106 -11 182t-29 132.5t-41 98.5t-47 79t-47 74t-41 84t-29 108.5t-11 147.5v241q0 24 7.5 54.5t28.5 57t58.5 45t97.5 18.5t97.5 -18.5t58.5 -45t28.5 -57t7.5 -54.5 v-448h-128v448q0 24 -5.5 39.5t-14.5 24t-20.5 12t-23.5 3.5t-23.5 -3.5t-20.5 -12t-14.5 -24t-5.5 -39.5v-195q0 -113 19 -189t47.5 -132.5t61.5 -102.5t61.5 -99.5t47.5 -124t19 -175.5v-390q0 -12 -3 -43.5t-21 -64.5t-57 -58.5t-111 -25.5t-111 25.5t-57 58.5t-21 64.5 t-3 43.5zM84 1952q0 30 11 56t30 45t45 30t56 11q63 0 103 -40t40 -102q0 -29 -11 -54.5t-30 -44.5t-45 -30t-57 -11q-30 0 -56 11t-45 30t-30 44.5t-11 54.5zM163 1953q0 -26 18 -44.5t45 -18.5q29 0 47 18.5t18 44.5q0 28 -18 45.5t-47 17.5q-27 0 -45 -17.5t-18 -45.5z " />
<glyph horiz-adv-x="467" d="M64 160v1408q0 8 1 24t6 35.5t17 40t33 37.5t54 27.5t81 10.5t81 -10.5t54 -27.5t33 -37.5t17 -40t6 -35.5t1 -24v-1408q0 -12 -3 -43.5t-21 -64.5t-57 -58.5t-111 -25.5t-111 25.5t-57 58.5t-21 64.5t-3 43.5zM137 1845v185h182v-185h-182zM192 160q0 -12 1 -28.5 t7 -31.5t19 -25.5t37 -10.5t37 10.5t19 25.5t7 31.5t1 28.5v1408q0 12 -1 26t-7 25.5t-19 19.5t-37 8t-37 -8t-19 -19.5t-7 -25.5t-1 -26v-1408z" />
<glyph horiz-adv-x="467" d="M64 160v1408q0 8 1 24t6 35.5t17 40t33 37.5t54 27.5t81 10.5t81 -10.5t54 -27.5t33 -37.5t17 -40t6 -35.5t1 -24v-1408q0 -12 -3 -43.5t-21 -64.5t-57 -58.5t-111 -25.5t-111 25.5t-57 58.5t-21 64.5t-3 43.5zM88 1952q0 30 11 56t30 45t45 30t56 11q63 0 103 -40 t40 -102q0 -29 -11 -54.5t-30 -44.5t-45 -30t-57 -11q-30 0 -56 11t-45 30t-30 44.5t-11 54.5zM167 1953q0 -26 18 -44.5t45 -18.5q29 0 47 18.5t18 44.5q0 28 -18 45.5t-47 17.5q-27 0 -45 -17.5t-18 -45.5zM192 160q0 -12 1 -28.5t7 -31.5t19 -25.5t37 -10.5t37 10.5 t19 25.5t7 31.5t1 28.5v1408q0 12 -1 26t-7 25.5t-19 19.5t-37 8t-37 -8t-19 -19.5t-7 -25.5t-1 -26v-1408z" />
<glyph horiz-adv-x="479" d="M64 0v1728h128l160 -1280v1280h96v-1728h-128l-160 1280v-1280h-96zM103 1830l59 346h146l59 -346h-102l-30 238l-31 -238h-101z" />
<glyph horiz-adv-x="479" d="M64 0v1728h128l160 -1280v1280h96v-1728h-128l-160 1280v-1280h-96zM77 1833v105h327v-105h-327z" />
<glyph horiz-adv-x="479" d="M37 2054h101q0 -36 7 -57.5t19 -33t28.5 -15t35.5 -3.5q21 0 38 3.5t29 15t18.5 33t6.5 57.5h101q0 -119 -45 -171.5t-145 -52.5q-103 0 -148.5 52.5t-45.5 171.5zM64 0v1728h128l160 -1280v1280h96v-1728h-128l-160 1280v-1280h-96z" />
<glyph horiz-adv-x="479" d="M64 0v1728h128l160 -1280v1280h96v-1728h-128l-160 1280v-1280h-96zM91 1952q0 30 11 56t30 45t45 30t56 11q63 0 103 -40t40 -102q0 -29 -11 -54.5t-30 -44.5t-45 -30t-57 -11q-30 0 -56 11t-45 30t-30 44.5t-11 54.5zM170 1953q0 -26 18 -44.5t45 -18.5q29 0 47 18.5 t18 44.5q0 28 -18 45.5t-47 17.5q-27 0 -45 -17.5t-18 -45.5z" />
</font>
</defs>
</svg>
